<mxfile host="Electron" modified="2024-04-26T19:56:08.580Z" agent="Mozilla/5.0 (Windows NT 10.0; Win64; x64) AppleWebKit/537.36 (KHTML, like Gecko) draw.io/24.2.5 Chrome/120.0.6099.109 Electron/28.1.0 Safari/537.36" etag="fV9c5LiZEwSdttAEQkuJ" version="24.2.5" type="device">
  <diagram name="Page-1" id="w3ffBUm_rU1DtYVk5Giu">
    <mxGraphModel dx="1434" dy="964" grid="1" gridSize="10" guides="1" tooltips="1" connect="1" arrows="1" fold="1" page="1" pageScale="1" pageWidth="827" pageHeight="1169" math="1" shadow="0">
      <root>
        <mxCell id="0" />
        <mxCell id="1" parent="0" />
        <mxCell id="PViQvo8kQTMJbRoSZUBt-1" value="" style="shape=image;verticalLabelPosition=bottom;labelBackgroundColor=default;verticalAlign=top;aspect=fixed;imageAspect=0;image=data:image/png,iVBORw0KGgoAAAANSUhEUgAAAzkAAAISCAYAAADvDgFYAAAAAXNSR0IArs4c6QAAAARnQU1BAACxjwv8YQUAAAAJcEhZcwAADsMAAA7DAcdvqGQAAPQ9SURBVHhe7P17rGfXld+JnVtVt4pVZFXxVRQfEpstUd1kqyXNSN2S2olbHk+7DQ9mMjEUwAIyAqYFhP8oCUZBlAGUANEfQYCRgcBBBKSTAHEQuCfJoA3HCRBjPA17NPDMWHJL6tbD1INiU8XmQ6zio1gPsh4s5n5O3e/lql17n7Nf53d/99b6APeec/Zee+333mv9zvmd38bn/uir7w57lM3zV4djpy8N5z5ycjtkfTn5o3PDpUePDVePb26H7C7HXnhrPF565Oh4XCWraoul6thz3LWWsTZ9SR/k1jdH7r5vnh1e/ez921c3kypTLDysd5i3jbdx0nXh6tvDue8+Nzzwex+9Ja0tYxgXq2OsfLF6puqXapOUPEy149yYiNUhJEcGcuWgZKxO1d2SIzcnM1euVFtP1T2WJiUfysbkwjqE11aHjXvlT34wnPzEY8ORe4+PcXOU9JGYGospavKB2nSQM1amqKmnpTV/aKm/pWTe5tDaNiG99UGP9o/Rq09SLNEWlt5jIcWq8hHq7wPb147jOI7jOI7jOPsCd3Icx3Ecx3Ecx9lXuJPjOI7jOI7jOM6+wp0cx3Ecx3Ecx3H2Fe7kOI7jOI7jOI6zr3Anx3Ecx3Ecx3GcfcXGF7/6pT37Cmk4dPbqcO3+vq8EXIJ1LOdulWmV+S6VV0+9rbpq0pemyZWfk5uKT8Xlhk9d61zHi2+/Nbz6/dPDo5/69Zviw3MovYbcMCgNh6k4aI2HHBnIlYPeOnvVY0qmJq4kPCes5Nqen/72T4b7PvbocOcd+a+3DXXPUSov9ko6sdvpxbrpgZ66oLc+WEKn2Ku6xSrygFXlA8pr4/N/+JW9+zs5b14bNt+4Mr4Le93h/eBX7z48XD1xaDtkd9nN8qwq76Xy6TnuWstYm74kXW59c+ROfPfc8OYn4u/JT5UpFh6GhXnbeBun8ItX3hrO/PyF4ZFPP3FLWlvGMC5Wx1j5YvWMyUGqTVLyUNOOIlaHkBwZyJWDuXJZcmVz5OZk5uJTbT1V91ialHwoG5MLyxheWx027oVv/Xg49aFHhsP3Z/5OzkxbxJgaiylq8oHadNCSFmrqaWnNH3rogJJ5m0Nr24T01ge92i5kKb1iibaw9B4LKVaVj1C/+I+BroilfoiqlqV/wGqKVbXFUnXsOe5ay1ibvqQPcuubIzf1w2apMsXCw3qHedt4Gydd/mOgN9chJEcGcuWgZKxO1d2SIzcnM1euVFtP1T2WJiUfysbkwjqE11aHjfMfA32PnLEyRU09La35Q0v9LSXzNofWtgnprQ96tH+MXn2SYom2sPQeCylWlY9Qf/t3chzHcXYJFv5V3b53HMdxnNsJd3Icx3EcpyM4rjiwjuM4zu7hTo7jOM4awhcnez9a4TiO4zi3C+7kOI7jOE4hOKA4oo7jOM564k6O4zhOA37HxXEcx3HWD3dyHMdxVoA7Q04OfofIcRynD+7kOI7jOM7CuPPiOI6zWtzJcRzHcRzHcRxnX+FOjuM4juM4juM4+wp3chzHcRxnl/Df1HEcx1kGd3Icx3E6gsGK4eo4juM4zu7hTo7jOI5Txeab14ardx/evnIcx3Gc9cGdHMdxHMdxHMdx9hXu5DiO4ziO4ziOs69wJ8dxHMdZK3gEjkfhHMdxHKcWd3Icx3Ecx3Ecx9lXuJPjOI7jOI7jOM6+wp0cx3Ecx3Ecx3H2Fe7kOI7jOI7jOI6zr3Anx3Ecx3Ecx3GcfYU7OY7jOHuIzfNXh2v3b25fOUtDW9PmjuM4zt7CnRzHcRzHcRzHcfYV7uQ4juM4juM4jrOvcCfHcRznNoIf2eTHNh3HcRxnP+NOjuM4zj5i840rw9UTh7avnDloK9rMcRzH2V9sfOHrX353+3zPoY1pL3wqefSZi8Nbj9+5fbX77GbbraotlqpjT72tumrTl/RBbh45clP5puJi4WFeU9f2XLquvHxuePH1M8NjTz5+S1qb31w+EJYvJgM59bDE5GEqDaTSibn0kCMDuXKwhOxcXWFO11z8VB6puJLwnLCSa3v+0j/9wXDirz0+3Hn46Hg9R0kfibAsOdTkA7XpoKaclt1ODy31t/TSI3rUzdJbHyyhE3q3ZchS5RZLl1+sKh+hdtvTd3JorENn98Zbb8Y39Gx38u3OXm+LvTTuUpT0QW59W9slVaacsk7lbeOk6+q9h4cjz781huWmhZw65siIElkxl6bH/Kop126wirrW5FGSJkc2lJlKY+Muf+DosPlaXjn2OyV9sgS7nb9lr8zvnqxT+68TqxoLqx5z6u+Nz/3RV/funZzzV4djpy8N5z5ycjtkfTn5o3PDpUePDVePr8erX4+9cMPAu/RI3id8PVlVWyxVx57jrrWMtelL+iC3vjly933z7PDqZ+/fvrqZVJli4WG9w7xtvI2TrgtX3x7Offe54YHf++gtaW0Zw7hYHcM6xWQgVveULKTaaioNzPVtzpiZy0OUjL8lZHPG8ZyulvZM9VEqTUw+JhvKhTLhtZW3ca/8yQ+Gk594bDhy7/Exbo6SPhKpNpiiJh+oTQepPsmlpp6W1vyhpf6W3PmdS2vbhPTWBz3aP0avPkmxRFtYeo+FFKvKR6i//Ts5juM4juM4juPsK9zJcRzHcRzHcRxnX+FOjuM4juM4juM4+wp3chzHcRzHcRzH2Ve4k+M4juM4juM4zr7CnRzHcZxMNt+8Nr4K03Ecx3Gc9cadHMdxHMdZY3CscbAdx3GcfNzJcRzHcRzHcRxnX+FOjuM4juM4juM4+wp3chzHcRzHcRzH2Ve4k+M4juPchL9gwXEcx9nruJPjOI6TwI399ca/kO84juOkcCfHcRxnl3AnynEcx3GWwZ0cx3Ecx+nI0neY/A6W4zjOPO7kOI7jrBmb568O1+7f3L5y1hX6iL5yHMdx1g93chzHcRzHcRzH2Ve4k+M4juM4juM4zr7CnRzHcRzHcRzHcfYV7uQ4juMsjH/HxnEcx3FWizs5juM4jrMC/EUFjuM4q2Pji1/90rvb53uSQ2f3xiek61jO3SrTKvNdKq+eelt11aQvTZMrPyc3FZ+Kyw2futa5jhfffmt49funh0c/9es3xYfnUHoNuWFQGg61caKXDOTKwRKyPeoyFd8zrmeYvU6dn/72T4b7PvbocOcdR8frHGJ5T1EqL/ZKOrHb6cW66YGeuqC3PlhCp9irusUq8oBV5QPKa+Pzf/iVPevk8DsBm29cGS49emw7ZH05dvrS+NsGV08c2g7ZXXazPKvKe6l8eo671jLWpi9Jl1vfHLkT3z03vPmJk9tXN5MqUyw8DAvztvE2TuEXr7w1nPn5C8Mjn37ilrS2jGE+sbKEdYq1Q6ptYvogJQ9TcZDSKebiIUcGcuVgCdkedWlpz1RcSXgsLBxToUx4nRqzL3zrx8OpDz0yHL7/+Bg3R6wsc0zN6RQ1+UBtOmhJCzX1tLTmDz10wNyYL6W1bUJ664NebReylF6xRFtYeo+FFKvKR6hfNj73R1/du07O+atjRc59ZLkB0IuTPzo3du7V46vxYuc49sJb4/HSI/mf8PViVW2xVB17jrvWMtamL+mD3PrmyN33zbPDq5+9f/vqZlJlioWH9Q7ztvE2TrouXH17OPfd54YHfu+jt6S1ZQzzibV3WKdYO6TaJtV/KXmYioO5vk3lacmRgVw5WEK2R11a2jMVl8ozJh8LC8dUqC+8tvJW3yt/8oPh5CceG47cm+nkZLRnyNScTlGTD9Smg6l+zKGmnpbW/KGl/pa5MV9Ka9uE9NYHPdo/Rq8+SbFEW1h6j4UUq8pHqL/9OzmO4ziO4ziO4+wr3MlxHMdxHMdxHGdf4U6O4zhOJdyCD79IybPHPAvsOLUwphhbjuM4Tj3u5DiO4zjOLoFDjGPsOI7j9MWdHMdxHMdxHMdx9hXu5DiO4ziO4ziOs69wJ8dxHMdxHMdxnH2FOzmO4ziO4ziO4+wr3MlxHMdxHMdxHGdf4U6O4ziO4ziO4zj7CndyHMdx9hD+OzyO4ziOM487OY7jOI7jOI7j7CvcyXEcx3GcBP5jnY7jOHsTd3Icx3Ecx3Ecx9lXuJPjOI7jOI7jOM6+YuOLX/3Su9vne5JDZ68O1+7f3L5aX9axnLtVplXmu1RePfW26qpJX5omV35Obio+FZcbPnWtcx0vvv3W8Or3Tw+PfurXb4oPz6H0GnLDoDQcauNELxnIlYMlZHvUpTZ+Kl0sLldPTlp7nTo//e2fDPd97NHhzjuOjtc5xPKeolRe7JV0YrfTi3XTAz11QW99sIROsVd1i1XkAavKB5TXxuf/8Ct71snhOenNN64Mlx49th2yvhw7fWl8tvvqiUPbIbvLbpZnVXkvlU/Pcddaxtr0Jely65sjd+K754Y3P3Fy++pmUmWKhYdhYd423sYp/OKVt4YzP39heOTTT9yS1pYxzGcuXwhlINU2MVlIyUMqjWiNhxwZyJWDJWR71GWqrWEqfSquJDwnbO46NWZf+NaPh1MfemQ4fP/xMW6OWFnmmJrTKWrygdp00JIWauppac0feuiAuTFfSmvbhPTWB73aLmQpvWKJtrD0HgspVpWPUL9sfO6Pvrp3nZzzV8eKnPvIcgOgFyd/dG7s3KvHV+PFznHshbfG46VH8j/h68Wq2mKpOvYcd61lrE1f0ge59c2Ru++bZ4dXP3v/9tXNpMoUCw/rHeZt422cdF24+vZw7rvPDQ/83kdvSWvLGOYzly/E+iTVNjFZSMlDKo2Y69u59JAjA7lysIRsj7pMtTVMpU+1dSpNzliGUC6UCa/tmLVpX/mTHwwnP/HYcOTeTCdnoq4ppuZ0ipp8oDYdzM2LOWrqaWnNH1rqb5kb86W0tk1Ib33Qo/1j9OqTFEu0haX3WEixqnyE+tu/k+M4juM4juM4zr7CnRzHcZx9BM8i9/600nEcx3H2Gu7kOI7jOLctOIQ4ho7jOM7+wp0cx3Ecx3Ecx3H2Fe7kOI7jOI7jOI6zr3Anx3Ecx3Ecx3GcfYU7OY7jOI7jOI7j7CvcyXEcx3Ecx3EcZ1/hTo7jOI7jOI7jOPsKd3Icx3FuIzbfuDJcPXFo+2r/Q12ps+M4jnN74U6O4ziO4ziO4zj7io3P/+FX3t0+33Nsvnlt/ITu0qPHtkPWl2OnLw1X7z68Np+g7mbbraotlqpjT72tumrTl/RBbh45cie+e2548xMnt69uJlWmWHiY19S1PZeui1feGs78/IXhkU8/cUtaW8aSfERuGKTqnJKHqTiYamPI6fu5PESuHCwhmyOXIzPVZlPpS/svZyxDKBfKhNe2/DbtC9/68XDqQ48Mh+8/PsbNMVXXFHPjLUZNPlCbDnLG/RQ19bS05g8t9bf00iNa2yaktz7o0f4xerdlyBJtYVm6/GJV+Qj198YXv/qlPevkAL9Ufe3+ze2r9WXdyrmb5VlV3kvm00t3q57a9KXpcuXn5KbiU3Gx8LmwMF7XOl58+63h1e+fHh791K8nZcNzCK8hRwZy0lpK9Fha4yFHBnLlYAnZXnJT8T3jasNKru356W//ZLjvY48Od95xdLyeI9Sbw6rSQG06aEkLu50eeugQ66oLeuuDJXTCUnrF0vphFXnAqvIB5bXxuT/66t69k3P+6uitnfvIcl5uL07+6NzowV49vpoOnuPYC2+Nx0uP5G1+PVlVWyxVx57jrrWMtelL+iC3vjly933z7PDqZ+/fvrqZVJli4WG9w7xtvI2TrgtX3x7Offe54YHf++gtumwZw7i5fCGUgVTbpOoc0yGm4mCqjSGn7+fyELlysIRsjlzruJzKI9WWJf0d0x/KhTLhtS2/TfvKn/xgOPmJx4Yj9+bdyclpz5C58RajJh+oTQc5436KmnpaWvOHlvpbcuZECa1tE9JbH/Ro/xi9+iTFEm1h6T0WUqwqH6H+9u/kOI7jOE4FPA7BYxiO4zjO+uFOjuM4juM4juM4+wp3chzHcRxnn+B3lxzHcW7gTo7jOI7jOI7jOPsKd3Icx3EWhk/W+YTdcRzHcZzV4E6O4ziO46wAf5TMcRxndbiT4ziO4ziO4zjOvsKdHMdxnG14l/+qfqzMcRzHcZzlcCfHcRwnk803rgxXTxzavnKc1cCYY+ylwDHHQXccx3HeY+OLX/3Su9vne5JDZ/fGJ6/rWM7dKtMq810qr556W3XVpC9Nkys/JzcVn4rLDZ+61rmOF99+a3j1+6eHRz/16zfFh+cwFQe9w8QScTAXL3rLwRKyOXJzMi3xqbiS8DCsVCYVd/rbPxnu+9ijw5135P8aeyzvKUrlxV5JJ3Y7vVg3PdBTF/TWB0voFHtVt1hFHrCqfEB5bXz+D7+yZ50cvsDJp1uXHj22HbK+HDt9afzS6bp8Cryb5VlV3kvl03PctZaxNn1Jutz65sid+O654c1PnNy+uplUmWLhYViYt423cQq/eOWt4czPXxge+fQTSdlQT+w6VudQBmJhUBoOU3Ew1cYwlx5yZCBXDpaQzZFbalxCKi6VZ0w+J6xkXNrzF7714+HUhx4ZDt9/fJSbI1aWOebGW4yafKA2HbSkhZp6Wlrzhx46IGdOlNDaNiG99UGvtgtZSq9Yoi0svcdCilXlI9QvG5/7o6/uXSfn/NWxIuc+stwA6MXJH50bO/fq8dV4sXMce+Gt8XjpkfxP+HqxqrZYqo49x11rGWvTl/RBbn1z5O775tnh1c/ev311M6kyxcLDeod523gbJ10Xrr49nPvuc8MDv/fRpCyE+YRlidU51iexMEjVOSUPU3Ew1caQytMyl4fIlYMlZHPkWsflVB6puFSeMflY2Nw4C9NYeRv3yp/8YDj5iceGI/dmOjmJ+kwxN95i1OQDtekgZ9xPUVNPS2v+0FJ/S86cKKG1bUJ664Me7R+jV5+kWKItLL3HQopV5SPU3/6dHMdxHMdxHMdx9hXu5DiO4ziO4ziOs69wJ8dxHKcjPHe81PPZzv6DscKYcRzHcfriTo7jOI7jOI7jOPsKd3Icx3Ecx3Ecx9lXuJPjOI7jOI7jOM6+YuMLX//y3n2F9PZzzLwLe905+szF4a3H79y+2n12s+1W1RZL1bGn3lZdtelL+iA3jxy5qXxTcbHwMK+pa3suXVdePje8+PqZ4bEnH0/KQngdliWMh5zyilSdU/IwFQcpnWIuHubyELlysIRsjlyOzFSbTKVPxZWEx8LC8oQy4bWVt3Ev/dMfDCf+2uPDnYfzXm8bK8scOeMppCYfqE0HNeW07HZ6aKm/pZce0aNult76YAmd0LstQ5Yqt1i6/GJV+Qi1256+k0Nj8aumewF+eVWdfLuz19tiL427FCV9kFvf1nZJlSmnrFN52zjpunrv4eHI8zd+38AyV4ecspS0bYlsL3Yjz92kdVzWUJJnTDbso9pxefkDR4fN126fvp5it8f9Os273ZgTu83ttu7lsqqxsOoxp/72HwNdEUv9EFUtS/+A1RSraoul6thz3LWWsTZ9SR/k1jdHbuqHzVJlioWH9Q7ztvE2Trp6/RhorP1zyitSdU7Jw1QczP14XCpPy1weIlcOlpDNkWsdl1N5pOJSecbkY7KhXMm4tHH+Y6DvkTPup2j9UcbW/KGl/pacOVFCa9uE9NYHPdo/Rq8+SbFEW1h6j4UUq8pHqL/9OzmO4zh7CD6d8ldUrw5/xbPjOM7exJ0cx3Ecx3Ecx3H2Fe7kOI7jOI7jOI6zr3Anx3Ecx3Ecx3GcfYU7OY7jOI7jOI7j7Cs2nnrqqT37djXHcZwaLl26NLz88svDBz/4we0Qx9l/PPvss8ODDz44HDt2bDvEcRzn9sFfIb0ilnp9YS1Lv/ZwilW1xVJ17DnuWstYm76kD3LrmyM39TrMVJli4WG9w7xtvI2Trr38CulUGjH3ytG59DCVvyVXDpaQzZFrHZdT6VP5p9LE5GOyoVzJuLRx/grp98gZ91O0vsq3NX9oqb8lZ06U0No2Ib31QY/2j9GrT1Is0RaW3mMhxaryEepvf1zNcRzHuQl/TbXjOI6z13Enx3EcJ4Eb++uN/4aN4ziOk8KdHMdxHMfZQ7hz5ziOM487OY7jOI7jOI7j7Cv87WqO49x2+NvVnNsBf7ua4zi3M/52tRWx1Js9aln6jSBTrKotlqpjz3HXWsba9CV9kFvfHLmpN8WkyhQLD+sd5m3jbZx05b5dLcw7vI61f055RUwWUvKQSgM5fTCVXuTIwFQ5Q5aQzalva5tMpU+VM5UmJh+TDeVCmfDalt+m9bervUfumE7R+par1vyhpf6WqTFdQ+83gC3xRrEe7R+jV5+kWKItLL3HQopV5SPU3/64muM4juM4juM4+wp3chzHcRzHcRzH2VdsfP4Pv7J3H1d789r4hhluSa073Ka7evfhtXkd7W623araYqk69tTbqqs2fUkf5OaRI3fiu+eGNz8Rv12dKlMsPMxr6tqeS9fFK28NZ37+wvDIp59IykKYd3gdykNOeUWqPVLyENMvptKJqfQiRwZy8hNLyObItbbJVPpUXEl4TtjctS2/jXvhWz8eTn3okeHw/XmPq8XKMsfUnE5Rkw/UpoPcMZ2ipp6W1vyhpf6WXnpEa9uE9NYHPdo/Ru+2DFmiLSxLl1+sKh+h/t744le/tKdfPHDo7NXh2v19n7FcgnUr526WZ1V5L5lPL92temrTl6bLlZ+Tm4pPxcXC58LCeF3rePHtt4ZXv396ePRTv56UDc9h7hpyw6A0HKbioDUecmQgVw52U3ZOpjZ+Kl0sLldPTlp7nTo//e2fDPd97NHhzjvyvi8Qy3eOVaWB2nTQkhZ2Oz300CHWVRf01gdL6ISl9Iql9cMq8oBV5QPKy188sCKW+tJbLUt/WW6KVbXFUnXsOe5ay1ibvqQPcuubIzf1JcpUmWLhYb3DvG28jZOudXnxQKo9UvIQ0y9y+mAqvciRgalyhiwhm1Pf1jaZSj9VzljfxuRj+kO5UCa8tuW3af3FA++RO6ZTtH4BvDV/aKm/JWdOlNDaNiG99UGP9o/Rq09SLNEWlt5jIcWq8hHqb/9OjuM4zprBbf3ej1U4/RkfD9vqK8dxHGf92PjC17+8d+/kbG8uPHe37hx95uLw1uN3bl/tPrvZdqtqi6Xq2FNvq67a9CV9kJtHjtxUvqm4WHiY19S1PZeuKy+fG158/czw2JOPJ2UhzDu8DuUhp7wiJgupcJiKS+VjmUovcmQgJz+xhGyOXGubTKWfiovpjMnnhM1d27xs3Ev/9AfDib/2+HDn4bxPmWNlmSN3rFhq8oHadFBTTstup4eW+lt66RE96mbprQ+W0Am92zJkqXKLpcsvVpWPULvt6Ts5NBbP3e0FeDZQnXy7s9fbYi+NuxQlfZBb39Z2SZUpp6xTeds46bp67+HhyPM3HjOwhHrCvHPKkiMzx5SOqbicPlhVHVZBTn1b22QqfY7uOWrqEF6nyn/5A0eHzdfWvx9XwW6P6XWaUz3G7V5jr6xpq2ZVY2HVY0797d/JWRFLPQ9ay9LPkU6xqrZYqo49x11rGWvTl/RBbn1z5KaeL06VKRYe1jvM28bbOOla9+/kxHSIqbicPphKL3JkIFWvGEvI5tS3tU2m0k/Fxfo2Vq+YjlAulAmvbfltWv9OznvkjukUrd+NaM0fWupvmRq3NbS2TUhvfdCj/WP06pMUS7SFpfdYSLGqfIT62x9XWxFL33IsZTfbblVtsVQde+pt1VWbvqQPcvPIkZvKNxUXCw/zmrq259Llj6vF04scGcjJTywhmyPX2iZT6afiYjpj8jlhc9c2Lxvnj6u9R005LbudHlrqb+mlR/Som6W3PlhCJ/Ruy5Clyi2WLr9YVT5C7eaPq60Iv1X6Hnu9LfbSuEtR0ge59W1tl1SZcso6lbeNky5/XG35OqyCnPq2tslU+hzdc9TUIbxOld8fV3uP3R7T6zSneozbvcZeWdNWzarGwqrHnPrbH1dbEUvdKq1l6VusU6yqLZaqY89x11rG2vQlfZBb3xy5qVvvqTLFwsN6h3nbeBsnXf64Wjy9yJGBVL1iLCGbU9/WNplKPxUX69uYfCwsrH8oE17b8tu0/rjae+SO6RStjw215g8t9bdMjdsaWtsmpLc+6NH+MXr1SYol2sLSeyykWFU+Qv298clPfnLPOjmO4ziO4ziO4zghe/ZODl7hie+eG978xMnunnlvlvb0S6E83MZblUdtwbvmtuXSbbFUm/dsu1ZdtelL+oA8eLZ1bp7NlUXzlWdkY/mmyhQLD8PCvLkG4m2c0r18/rXh7b98bbj0/ReHh/7DvzLctXnHWDZ9WsYnZ6pv+OkTOuyngbFPp0IZsGWypD6li+kQU3E5n5blfDI4lYclVw5SbRAjpx6QKzdX59o2nYqL5Rlrg5iOUG7u2uZlz5/73/3nw7GPPTzc8f57hxNPPDKGzUFb5K4PQPmn5naKkvFgqU0HpXWzkG/OWjhFS/6CcrTsG6KXHlDbzK0ruWhM9bTvasdpDj36NcUSbRHScyxMsap8QO22J7+TYwfrUp3eC3XqEoO/hlUOshDyXmohsCzV5j3brlVXbfqSxZg89quDMz6mtmX8XX7lzbFu4/O7W+UEzlNgCGOQ7iY815zqj803r431bGUqj3WCMi79nPfSecT6jHE79WOwzEvFM86ZW+H5mz9+Ybj33/nNcawz5rnOgflC/ppLc9A+rBGUKTcNMEdL8hF27pdSWjcL+dK2rGVaK0ppyV9QDsZLiw6QHtbGVtQ2PXQBY6q1rUPsOO2lU/To1xRqiyX3nV5jao5V5QPq742nnnrKH1dzHGffc+bMmeH8+fPDyT/41Hj97l+8NvziH/2r4ZOf/OR47Tj7ie985zvDb/yd3x0NCzj39789HD9+fDh16tR47TiOs9/Zc4+rxT7dXUfwVHvevm1Fn6YvecszBW3Bpxx82rEkS+WjvuzRdq1lrE1fMm9y6ztXFo05PoWK5ZsqUyw8DAvLyDUQb8uldLqD8+GHHh3vxvDpOemfvvrSzhezU4/8oMM+yhQ+hhTGU++5x49EqEuEOi2pNJDKR8TKFmMqD0uuHMyVzZJbTsgpw1R7wlx+qTym0sXSxNogFhamtdehvI3TOXdtjrx6eXj42olx/onnnn5mLR9dK81H1KaDlrT0Qcs6XttOIS11sJTMzTla2yaktz5A5xL2mfp1KTurZz+l6DWm5lhVPgd/43N/9Wvb52sPHXz9joOLN0orDPS7fnR+HOjXjxzcDt09lp54UyyxQMXQovX6b9+7HdIH25etbdfaFrV1LFlMcuurslx44nh0jGvMrZODw2M7148eHMu1+drVMf2B9901vmXt7lP3DgevXt/6e3cYNrYWRnM+bGwMd/zy7THtwSuEG7mt681zV0eZnestB+rg2++8J8/f5a3wrXLdFLb1d+Sly8O1+zZvCuPv6M8vDZcfuuOW8DvOXhk2Dgy36NmJp5xba6TKEv5Fyxb8zeVh/1Llj/4l2iD2B7RBlu6gP2J/t/Rh8DfbLok8ptJF2ybSBmGfhe1/S38YHTbOnr91/uLwzrFDw8Ffv2+cz4z3a/ceHg7/G48M5/7sF8M7V64NR+4/MbbzFJcfuGM49vylse5XT8yvf6wF1Jk8NzY3stJAaT6iNh3QTqXlFMiTJ3lThlJsO3GstRNa6m8hbQ89oLbZPH+tWRdIX21bx0An/d5TJ6hf2WNa+jUF5e7VTyk0L5Yov2VV+eyZHwNlUee56Knn5dcFPb+9LmXdzfKsqs+WqmNPva26atOX9IHy2C+Ej6jJQZLzxTU/mHjfxx4d7rzj6E1tlXMO4TW0hEEqHGrjYC5e9JaDElnoWYZWmZq4WHhOWMl17Pzi228Nz3zzz3ceVQvHPPBq6fvfOLSvHl2zbVRC2L4lkBZq00NL/qKHDuilB3rqgt76AJ2wV/SKJdoiJMyDDwx7I7uetWkp9oSTQ0MAjxusO/r0eupLo6tkt8rDIxwMXj4tX5Kl8uETWhkGrW3XWsba9KRjYcopv+pLHjl3cKbkeGTGGlSWkjs45AUKC/O28ZyzTsTu4Dy5+dCYxvYpsshw/Rfvu7xzp4e0eqzJPgZkw7lLRdvqjlx4DTYtxGQglBOp8JQekUonwjaNkSMj5vKzlOiFXN22b1LMtRtM5TeVRypdLDymJ5QL28leUw/WdMnbtDqPPapmjQn0IMujmqt4dG1uTQkpzUeQDmjfErQuYNCVpgXS0741acGuS7V7TWsdLMwTaNUDPXVBb33Q2n8pltIrxrtFHfo7RVh+rpdC438J1v47OSzwNEDpQrkb1C7OS7Fb5and3EpZKh/plUHQQuv4rU0fGkpT5NY3pyxTYy4VFwsPyx/mbeM5ZzHGgJWum96itp0WlB45OY78MOhL/7f/ZvzkGzk2DnRwroXXnpOXDEZdA2mElYeYDIRyIhWe0iNS6cRcPMzlIXLlRKl8TlkhR2+OzFR+NXGx8JywqWtbj9T5v/5//VfDY/+zv7kzrwHnR9ca38wd7ujsN0enJl3uGpjCrkE11LaTpbUOltp2jNFTF/TWB0vohNZxMUWPMTPHkuW3LJnPWjs5q+jEXiw1SUqgvcTmwp8iTKGFdum7R+SzxCcZPfW2tkVN+tK+z6kvOmVspcqiT9mYByGUB8K4WHgYxjVOhYwzG684yqXwV954dTj31sXRwQE5OcgwP3WNPhZVrvXI2uEHb7xiFFmYOld5dK04COsAoQzEwiAVHtNrSaUTc/Ewl4clR58o0Qu9y5HTNrZPLVNlSemNhcf0hHJT1za9PZfM68+9NGy+dHm463ceu2msExe7Bjk6Dx7P+65fWL45KKf9UGAKu7awnlC30rWzNl3OGjdF610G0qudavKH1jqIXnpEbZ+k6K0PpLO3DcecYw64ozMN+UDv9vdXSO8j2KBBBuGqIV9YOu8l8+nVdq1lrE1fUv7cPHLklC+bRAibZSwuFm4NNwgNJBtvz6ULB+ftn54dHvr9j95i1CEvWTYFGSXwykMHxhcQTD2yZs+tDNg4COMhlIFYGKTCpzYCNjzqNLUZpfRaYmWPkZOfpXQT612OubpP5TdV9pI+DMNiZbcyYb42TufIMLbRwY9/8ts4H3jnrlGGucNY14clmieaU5ojOPm8XhrnKIdwXuYQm+8hmtOCPIB0JdSmA9LWpBO7nR566ICWdgzpqQt66wPpdPYPa3snhw2HxTB3Q9wt7AazDuxmedh0tXEuyVL59Bpz+nSltoxKX/rpTEnf55YRnXIKUmWZardUXCycvEBhYd423tZVuvSI2iOffmKsG5sfm5bSI2evpV9GI78j8uCDDw7HjvW9M+g4q4CXbJw+fXrgUTVgvANzRPOdOWGvmf+aA/7o2g1qyynCdawUu7bV0loH0UsP9NQFvfWJdbcvYvQYM3MsWX5L73zW0slZVWO2soqBVcJulmevTgDRS68W3lYHpzR9Sd/n5pGziUy1WyouFk75QWFc1zg4ekSN8JhDA/bTb+DTez5N561UL75+ZtShT8lpA33Sbsttw4E4exfAlldIpyUWFuq2hPlYYnlapvRaYmWKMZdfyJLyOWWeajuw/RtS0yc5/R3WMby2um2cPZdOvXDggbvvG+vBeMepUZ2QA8176sT8luMD7ujcoLacojZfQf+27uXosGtoLa1tYempC3rrgyV0itZxMUWPMTPHkuUXvdt/7Zwcu3ivAhq0hs3tZ1bpiHVgN8vD5g9sxkuyVD5TemnXEqxhUUNNehY2DHqMlxxy85iTk5MQi0/FxcLDMNVHeeua+oXnkPoOji0718wN9TWwGWhBleHH4z6/8rd/e7j/9PVkflYn4RDGhddg5UUsLJZWxOTFVDqYixdTeVhy9Ykl5XPKPCczld9UXEpvLDwMC/WG11Y+dm7l9cIBjX/iGdMYJpLhOwwa70B6jW/tuev0HR1LaT6iJR3UpIXafAXpc/eC1HdTWO/U1i3fX5F90aoHeuqC3vpgCZ1C86+3XqC/Nc8te8EBtPTM57b/Tg6LSCksGlCTdgl2szzkvYp8l8pnTm/OBiNKNqUQbfyl6UOjaI6cMuYYIVN6UnGx8LD8Yd423p5LlxycDz/06Oi02E8vgYUStFjaeK4xAMmPazY2+90E5ChHmG+sbGDjYO4aYmGQCg/ztEzFwVy8SOUdkqtPLCmfI5sjM1X30j6JyYdhYdrw2srHziXPPNALB4B45oc+1eUuDvI4MjIggDtAoaPPHFmX7+iE1OQD5AWl6aCmnKK2vBb19RQaBykoA3VopZce6KkLeuuDJXTCUnoB3WD1K+x2ZG3u5LCwMlGXvNXWg1V5srmERtsqIW/QJ4BLsdQt0p7lbyljaGTkUjpncsqYM76n9KTiYuFh+4dj2dbPnkuXfUSNMGAxt+lloFgdpOUInPOpl4y+s48eGM78/IWd7/XIuECeO332kzJ7joMkmVE+uIbYp2xqa0ssrYjJi9SneGJKr8iRESWysKT8XN1hTt9cfKrtU3mH8jH9YVp7beVT58rjZ/+XfzZ8+H/018drxjs6ALnwnPmmuaE1R/NeaQlb+tE1lYHyl+xdpflA7RoLteUUNeW1aN1qsY166AC1xdyjoTn0KpPorQ9U39q+T7G0Hdk65uZYuvyiR5+uhZPTc+IsSctCuQSrGmgx6DNYuh2Wyqen3tYFxX7Kmkvp5M8pY854mtKTiouFh+3Ptd1MbP3suXSF38FRerWj1YfhKNRets1tWozLs3/8vfF10icvHNr5NEyfvIWfkik8PIe5a4iFQWk4TMXBXDwgA3NykKPPUioPuWl6yU3Fp+JKwsOwqeu5cx1ff/rFMfzI33x8PNo9ivmCnPZWroWcpNg80LxcR0endh9u2b9rymkpbZcQ8m819nrogF56oKcu6K0PltAJS9tvrWNujqXaJaQ1n113cqhAy+KxSmqM0aVoWbBbWeXght71K9FLO08hA9p+OltCTfrNN8u+f5Wbh8ZT6tPwKT2puFg45Wf8KEz1Ud62fvZcup4/eCHp4HCUAag1JVxjrKHHJqC0lIl05+66Nr6AgLs55Mk4J43KqzDGhs5BMlrHWC/sBzdhPIQyEOq1xOTFVBzE8g8pmRs5+iyl83mqHUJydOfoq2nfVDuE8rH8rczUeNI5ME9Jo7BXX3hlfOHAw9dO3OQIaUwL6SVP5LgmT817O4c4qi3l6Nz3yAPj9RzUgXmVWkdCkFd5c9OEa0YutemgppyW0nYJIT1oHIjc+QfMkx57dy890FMX9NYHS+gE9DIetTf1xM7t3DW3lKXaJYR8oKYeG1/86pd21clh0QAtzuuIyujcfkyNS8ZFy7itSV+aJkde47u2rqm4WHgYFuZt42PnfGp9/vz5W34HxzowyFoHh0UY44Ij6NMtKwvWyePxnyeffNJfJ+2sPd/5znfGR9VkwNvxzJzBALHzAHTOPJAxJNnQOCKtvqNzz5MPj+nnYF6B5m8Odr7nUpMP1KaDmnKKlnxFmL90OrcfOeOoZbzm0GNM51Bbj43P/+FXdsXJaflEZdXoE5gaL3IJMM52ozzaKFfhtS+RT0+9rX1Qk57yM2dSnzSH5OSR82nPlJ5UXCyc8oPCVJ/QIbFGGefSNfc7ONJHXYTtbz7BtoYbskB66QN0vnjozfGFBo89+fiog09PWQdUnvATduUPqp+Ni11DLCzUI+grlSFG6k6DmIuHVN4xcvRZSnSL3Dzm2kbM6Yv1h0jFxeoVK08oF8rYeBtnw1UG9k9gTsTu4mhMg8Y8aYlT/blmXgFjnDjJkr+dY6TxR9duQDntulJKabuEhOOohtY6iF56oKcu6NFOIb3LKGr1Mo7nYK3QvriUrU0elJ+1aUlYE6Ekn117XK11oq+KJSZKC7vVbktN7pB1W0RitPZBTXrKX2IA5OSRs9FP6UnFxcLDeRTWx/aPPZeuku/goI90oUEHMuQky6KpMDYAtcfFK28Nv/hH/2r4+N/8zBgvY88akmEYxGQsU/KW0nCYioO5eMiRESWyojRN7/LMyUzFl8blhE1dx87D45//5//ylrs4Og/HtMLsOmjnSbgeaE6Rj+Td0bmBXaNKaclXlLZrjJY6WHrpAXRBS70svfXBEjqhZzuGoLt0XpXSY0zmwAdVJXNnV5ycVTVGK0sN5lp2q900QaY+Ae3BUpO8p97WPqhJX7pA5eTR6uCk5kYsPGz/sD423p4r/ykHh6OMvlCfwnBkVA90KhxoA7C6AJlnn312OPHXHh/uvnRwTI9OjsC5PlGPnYPy1adn4TXkhkEqHMK8Q+bixVQeIbSd2jGHEt0iN49e9ZuKT8XFwmPlCeWmru252kBh6AVeGw1Td3HsOJezovlB2RSOXuaHXRfs3LLrxH50dEryEnatKmWdHB1o0QG99EBPXdCjnUKW0Am9625pGa+5LNUultI5u7iTQ4EsuZvRbkM5tdCuA2xwsOp2UzuwGNtNPAfS5sKY0Gbak5560QVM4hpq0qv8MkTmyM1DBkxKbkpPKi4M17XKL7gGhdn48FyPjYUOjhY4FlXkdG0XcsnKkNC16q045NGhMS7jg7s5b/6XzwyPfurXd8oVHiF1DqXXojQcpuJgLh5yZESJrChN07s8rTKpuFh4Tpi9njvnCDrHCd/4nUfGH+3UnLDrNWi8A2nCuaBra5zIiCAd8yhmkOPonDx65/DA3feN13PY+oTE1hjKBqpHDnYel1CbDtS+sTrM0ZKvsH1dSw8d0KIntC3CDwBa6a0PltAJS+mFVdiRJeUv/WBBlDg6i/8YqF3Ypha6dWLdyrlb5SFfqM2bgZ5Dj8U+Rk+96ILcOoXUbIal5c/JQzqn5Kb0pNohFq4wLagsfuStDw7sgmvPZVC9/txLo4Pz5OZDNxlw1qHRxkpe5M1Rn1RhuAnilNYagizE5Adc27pz/vTVl4ZTH3pkuP/09TGtFla7kCsM7Hm42IfXkBsGqXCYioO5eGHLPwVtSFuXbJa5ZbCUpMkpe0s7peJi4bH2CeXC69g4sjIK44jz/9K3fjZ88pOfHMcraF5zBGRjY51z0Py084W8FK61xzo+Vg9zA0fnro99YJSfg7pAOGYoYwo7H3MhDaieudTkJdTGNdSWV9Bf6qtaeuiAWj0acxaNY43vVnrrgyV0wlJ6BfqX0g25+lXPJVnZ42r2E9Z1Zt3KSXlAn6CtihJPuQUZqr3z6am3tQ9qbuGWlj8nj9gnsiFTelLtEAsnzM6jsD423p4rf/uImsoNNr3VRzoWzPBL1ZRJccgCurQAE64NGX32HPkrZ8+Pd3M++MEPjuGOsw6cOXNmuPrQkdHB0Dq9aRwa4NyOczv+gbkSzlOedycN1+F6EZuH/ujaDcJ2LKG2vJbSdo3RQwf00gM9dUFvfbCETlhKLzBeYQnd0DKXSsiZdytxcloWgFWiBXXp757kslvttsoBWrqB5dBTb2sf1CxUpeXPySNnI53SQ5kgjIuFh20W1sfG23Pln/oODlgDLtRHWtA5ZQrTcs7RfqqtcytjP4Xiy92/8Xd+d0evjirDpvnU3n7ybsMhvIbw03yIhUEqHKbiIJZ3SI6MKJEVNWnm6mXJkZ0rw1R8Ki4WHgsLy2evrbw91zqsMOQ5MiZ5KYbAiQkdGvTrnPQa14QBY11zRLpB58TZdQPsXNKcd0fnBmrHmr2ix55bs9eE9NABvfRAT12142KKJXSKnnUPWVI39BjTOczNu8WdHC1Q6+I4pKhZSJekZcFsYckJa1mqvXvqbe0D0kNJO5YuDDkLVU6fTpU1FRcLD9uMa9sfNt6eqx4pB4f0QD0gpg/sJ9E27ea2kUcbYFSiJzT4IJTn/Owff2+472OPDicvHNpJY49gwyAMF3PXEAuDVDhMxcFcPOTIiBJZsXSaXNk5uan4VFwsPAybup47t0fu4sCRv/n4zrzWmLbjGLiemgOcM3+Zf+iO3QnV+gHoAZsW3NG5QbgeldCSryht1xg9dEAvPdBTV+24mKJH38VYoqyWnu0aQ/N2aft/at4t6uTULEy7gR1I+pRtN7EG1qqhHdhMw08re7NUe/fSm9sHyMVgwgELSAnkSfvnpMvNY07nlJ5UXCycMAwl2t9eK28bH54Db4uaesmArsHmoYVNC7b0oV/9p3ENyleGnsa7lRHInrvr2vDi62fG7waRjjLYY6wuahfJQBgHNl7EwiAVDlNxMBcPsfKlKJEVS6fJkc2RSbVVKm0sPBYW6rXXsXPpCOEuzuOf/fjodIdyGvOpuzhWBuyYp6zoCucTkB7ID4MoZnzJ0eFFCDnYOudgy5AL9dHcLKE2Haitw3GSQyzf0r0s547mHD10QC89GsO0S6su6K0PltAJtXpzbe5VODp2XVkK8oGwHou/eGCvEBo3uwULHOxGech76XyXql9PvSXtENvImNAQi0tRuqnm5jG34U7pScXFwsMwrm19bLw9V/nk4My9ZMAaZxD75Fmy6JXzog1CRp0NV1ltvoRzBM75xXfdzVFceFQ7KwzsOYTXYbtBLAzCtJapOJiLh1S+MUpkxdJpcmVb2ioVFwsPw8Ly2fjYueQFY5S7OOfPnx8e+v2PjnLAuA3HOHCNDPExpycc75o75GsdHaUD5YNs+OEgeZz+9k+G48ePD3f9zmOj/BzkZdeJHCjv1JoWoyYN1KYDtWsNNt9wHORAmwI6aumhA3rpgZ66AH29dIkldEKpXrXV7c4id3KWunXXm6VvBZZiDblVt9vS3jws1d49x1u4yZdCeiipX2n5c/OY69MpPam4WDhhts24tuPYxttzlc8+oqa0YNPH9LGIM5Y4Vz0lS7j0cC7jT/JKGxqFxIHVzfnZRw/svICAjYaw2FFpY+cwdw2xMEiFw1QczMVDjoylVB6WTtOjnlPxqbhYeBg2dR07jx15qxro1c2Me413zQM7fza3nRhAhvNUOEfNIauLvDW/wjVc19JD2Do/ulaSBmryEqSF3HpZWvKFsJ9qKf3hxRi9ygK1/Ziitz5o7bsUS5RV9OyjFLQL60qtbZVLuJ4c/I3P/dWvjWedsI11+f4j26HryT3/8vVFO7WEpSZGDvvBwekx3lonodJf+NBd2yHzlC5c5AFzbbgXHRzYPH9t2HztxidQ1+88NF6n9F27b3O460fnh+vHDo5tbvO+fuTAcOSly6Oea/ceHuUYIzg1R39+41W2Ckf+4NXrw5G/fHu48MTxnfiNA+NhOHDp+nDs3Lvj75Lcfffdw8GTd4x5QnikTkoXnl+/4+BYt8sPHx3P+QvjYzJz4QfffmfM3+ooiddfrCypv1yd9m/pNL3qORUf64NYvrEwm9bGx84hdnzmm98ffv3BXx3HJNfSyx9j945fvj2Gcz6ui48d25kHnDOnGPOMfdIo/PJDd4zhG5sb4/y+48zlcT4wNy69/9hw7PlLW3Pk3XGN1bxD9uDl6zt60Hn1xOZw5wffN5z7s18M71y5Nhy5/8QYN8XlB+7Y0U/6OZAh77EeW2W5fuRG+0yBDLK0SW4aqMlLkHZcz7b+cuplackXVF/1U2n+ooeOXmUB6SrtxxSkb2nnGK19l2KJsgp0oXMJ3YJ2YY7XzIcSwvWku5Nz/JkL40KeMq7WBYysdSknhi6DS4bcKtkvDk6rXms811CTvtRBIw+Yq+tedXBs+gu/dnxcqGRohfpAaw2GoTXKQO2KwUq4HJwwHPnNN6/tGJc4OMRjsBGPfow4Ps2+8trF4cKFC8N9R7acqC1ZPlmXsQlco5cjYei05/whj4yuw/iYzFy4yhGL48+WLRavv1hZUn8lsvqrSZNbdv5yZefKMRUfa+dYvrEwm9bmETuPHV/9xS+HkydPDkd+5e5R1zg2t+YD8ZyzhxDO9bCxMTovGu87jv62o8M8s+E4OXJ0Dl+84bSgE6cJo8EaDtbRYW7wyKiuZcS6o3MD0u5lR6eHDrB6aupika7SfkzR2s4xpFPzpxe2rMzlnvRu1xiUv2Se13L96MGdMbu15PZjFQZzD9apnKWf5PdkVe2gjbZnPvvJwckpP3nAnGyrg0M9wrhYmrDOXPdycJQew4724Vl/qwNsPTkiiyMCalecGoWTNgyXbuL4jg5hgjDSUSaOxD344IPD66+/vi1xA8VZbFgsvjfksRdYRVvkMFeOVfVZ6Rg5ffr0cM+TD4+yjF3GZiwdY5nxy9hGN3KMedIwB+zYtuHAOTrt3GKuAXNv1Ls1F6UbuGbOMnfRyTUwt5njb/74hfF6Dqs/B8q3U6et9TQHlbMkDdTkJbRu5tbL0pIv2H6pSQ+xvq2htu1joKulXULUzozrXqDTzp9eqKy99ULPPkpROs9rsGN24wtf/3KX7+RQaKBT15l1KyedwGaRKo/KuwRsZtqolmSJfLS599DbWr6a9KXlz81jTm4qPhUXCw/DuAaF2fjwXF+ePvkHnxrDWOyYByxKLE7hNYs56ew184XF3sqyQSHHBmDv2uicMuiFA8hvmi9d68h8kw7CSMO14JE1nJ3Dj54cwxUfO4I9h7lryA0TU3EwFy9y5aBEVqwiTY78nMxUfCouDI/J2bDYOUeInevHPx++duKmeNC4BeaFHbd2/DPmOYId//acdPalHJpj6B+Nky3DR3PJXks2vAa+o3P/G4eGU6dOjdeknYJyz8lYbFuVUJoP1OYFNfmJlnxFS/6ihw7oqQd66IJcfSX2o+ZVb5tzKb2AbmAeLwV5LKkfWLe6ODl2gV1n1qmclEUTfao8bFC9wRgkzyV0W7TZ9c6nl14ZxWzyNehTH4yCXKxhnVP+3Dzm2mSqz1N5xNKEslzbNrTx9lzl0x2cx558fGeRVvqYgyMDi3JInvPQwQHyAPKxbay8NeeQpx+sXuJBawRy0qMycrxy+tzw8ssvz76AQEfp0jmUXotUOEzFwVw85MiIEllLTbrSND3qOhUfi8sJm7rWeewIvHBg86XLO46C0BgF5BnPGuca85rDmgegeWOdGyCdnU/IW0cn1BtzbOy15J57+pmdlxEQP0e4zsyh+ZwrD6o75UytmzFq00FpvSwt+UJreuihA3rpgZ66AH1zYwmZUlTG3iylF5bUDeiHJfNofrsaix/oU5t1Zd3K2eOtJTWsqh3sp+096aXXGsgY06Vo0+fTzFxin3JOkZvHXJtM6UnFxcLDMK5tG9p4e67yhY+oES5jTmlS+qy8FkTJgtqVTY5zdFrnyoYLxROmclBO9CpMWBlek1t7N8eeQ3gNuWFiKg7m4kWuHJTIipo0sES55uRS8SXhYZi9jp3HjsDvND3zzT8fPvnJT47XMRlgnDNfbBzzQ4Y1KAwjTfOH+Fg4aP6A5oWdj1p3wrVNc9nKr+Kta3a9yEHlpr4l+0C4VpVQWi9LTR0ttfW19NABLW0Y0touIb31wRI6YSm9sKRuKLWJamhycpZugF6sWzlbFrkWVtUOS9Wvl17aoWVxrWnH0smcm8dcm0zpScXFwsMwrm0b2nh7rvJNfQdHRpgMrVAf2HpyLllQu8qR4Zy0yNhw5DfNp346guRBcaERKfhU/e2fnh3v5jjO0vCoGnAXR2MyHJvhmNW4DsNic4F45hbnNtzOL1Bcal5qjUMfSCf5an1aR0fHrkUl+0FtOiitl6WmjpaWcgt3dOpAJ9T0+xRL6YUl2sHSayylqH672tIV78W6lbNlcWthVe2wVP166aUdWhbVmnZ0B2f6JQO8aYU3mYFeG23zs/Ukrd6Wxptr9DY06+BwTjjGFq/Y5S0r5LW5baDxet3xTTrb8YShX29RQz9HGZO8sUpwfecdx4bnfvjM8PDDD++EIRM78qar1HnsOhVWE66/uXj95crxVyJr/2rSlabJkZ+TmYqPxeWE2evYeewIP/7xj4fHPvPkeK0wHQFZO2aZA4xpxjZvcyOM8c98sW9dI478xzTbb13TW5t0zqvVVUbCmIPMV96QFL51Ta9tR5Y3syHLW5r0liPeprSKt67Z8uVAmpq3a9l0pW+6Kq2XpaaOltr6WkjTqgN6lEW0tktIb32Aztp+n2IpvbBEO1joc/qeNal1DMSoupNjDZl1Zt3KuZQDMMeq2mGp+vXSGxrXpdS0ozs4829R0zVOCOfAa2nB1tPKwrgobhl2xBMec3asDGULH1EDZEmvMBsH9lrnvICAX3YHvhDO9yViR0idw9y1SIXDVBzMxUOOjCiRtawiXa7snFwqPjc893rqCLyg445fu3984QCEYzQcqxrLHBnvxCmMecNdU+YCKEzzzp4rDdj5Rrjmol0XmKfkFZONrYH77Y5OaV6itF6Wlnyhtr6WHjpAerTut9DaLiHog5o+StHS71MspReWaAdLr7EUUvziAQaPFs51Zt3KSXlAG8yqWFU7LFW/XnrVDhgFNbpq25FJm5unLeMcc3JT8am4WHgYxjUozMaH53qsK/ctalzTBrSV7XcWVSsLMppsm8W+g4O8/c6B4kFpgTD0C/QpDnTNkZcPPP3008Pf/bt/dzvWcZbjK1/5yvD4Zz8+nLxw40vVdizGjnYsE6a1R/OHOUC45gthm8bR0XzRPInNO81JzVOh+Ro6NilH5+TRO4cH7r5vvJ5DdcwFeVg6DahsOet8CO2rti6FtLX5AumhNn/ooQNa62LpqQvQ11q/kCV0wlJ6YUndgH7omUeRkyOjYMlK9mDdyqmNoNeEy2VV+S6VDwO+x0LVOh5q61dSfuWB4TGFDAWM+Bj6fktMTyouFh6GyfCRsWPj7bnK9/pzLw3n3ro4PLn50E670x6kn3Jw9OkbL+aAMC3YNuCcNqZsYMORx3hT29oxQBj9gl5h9YCuOYqLb781fgn8H/2jfzR84AMf2A51nOV4/vnnh7/9t//28OSTT44vuwCNUztG7VEw3jXWgfFuw8K5ovmAjOacdYAgNv80b+0nyVOOjubkz146PTo6d30sby7F1qopNP9z5UH1VR1zselKoYz0W01aqM1XkJ5+zNmrUvTQAa11sfTU1dpHMZbQCUvphSV1i579lv24mhYoFrqet5J6ExpPuw3lAX16tSpCo3Eplqpfr9uureNW46n0NnpJ+XP7ak7nlJ5UXCw8DOPazikbb89Vvh5vUUOPjChAFmQkKc6eA9fSjdGBXjlfMgC1ESMneRvHUXANhOktV+7gOKtGjk7OHR2hsc2ReSCQYX7gMNh5Zse65o+dSzoHzTc7z8L5yzoVOjqa++QleX907Qal9bK05Au19bVIR+sjZ611saALato0RksfpVhCJyylF5bUDT3HQNaLB9zBqaP3BMtF7cAXrHt/icuyVP16TaBeDg7pS9qxpPzkkTOZ53RO6UnFxcLDMNqQL4WqDW28PVf5Yt/B0YsCDr79znDHmcvjdUwf2HrecfbK+DIA0k69ZEDnfPl3/AIrxtrGxqjX3l2yX8SWXvo3ZSTK6IO3z14YfvqnP3QHx9kVTp48Ofytv/W3hv/jf/K/H+78tQeGQydufL9HLyOIjV3NO8a4XjDACwGu3Xt4nCfsD3oZgebFuGdEXkBQ+zKCy/cfGb9MTLrDF6+OawBloGx84ZwvNe+3lxHUfkm7tF6WlnxB9WU81KQH6agtg2itiwVd44tstv44b6Wlj1Kg88T3zu3Mh15cP3rjpTu99cIS7WBBZ68xMOvk2E9iWLDWldAY221kvF340F3bIauBfFfh6C1VP/RijK6Tg1OSfr85OLYNbbw9n3Jw1IasHSxaGDeAcTT3FjWl5a1NODggA431KObsIL957uqYD8aUZIG80J96i1rMwSHs/IEr7uA4u451dI6//77h2Bs3xqkcGGHHtB3jzAPmAOur5hFzRE4QDs44nxLODY6QnCpkLz90x43wLSNqytE5ePn6OOdId7u8da00L1FaL0tLvtCaHnrogF56AF21bRqjpY9ShPOhB4zXJfSKJdrBgk50tzqos07OPf/y9XFxzDHadot1c8RCY3FVWMNwFQ5O7/qhF1rHWut4qG1Hd3Dy3qJ24deOj4sjBpjuNqYcHFBf2js1lx84shN+k4Pz5rXx02KMNhl49jXR6CXNlIMDpAe/g+OsE+EdncOHbqxPurMSG9OEM+YZ+zgZzAXd1WQeEMecsa+XDh0dvRoa2R0HacvJmXJ09EkyDg5z08raOzwywNzRuUGL8diSL7Smhx46oJceaGnTGL31LeWQWL0l4zeXJe8WATpb78RNOjkYHvrkZV2xBu06lNMagKuEdmCwyahciqXqh15o7cPW8WANbHdw+js4utZjK4xZHmOZc3DsXRvS6ndw5Owgj4ND2XhETfEYehhZ+sSa9BxjxiBwjTGH0chLBtzBcdaN2B2dlIMDXMuZYezL0UFGYfbRNevo8GiaHhPFuRnnkHGAUo4Oj9/gGJEOZwq9oWPjjk6aFiO6JV9oTQ89dEAvPdDSpjHQ1/Mxs6UcEullTvfUC0uV2ULbtvTbxhe/+qXkiwe0YK4zWszXpZy71Waraoel6tdLb2s71KYvKX+u7JzcVHwqLhYehnENCrPx4Xnta6LlUOEoWdA55eDonDKonKGDI1kgDJAljLIordUBqhfoNdHu4Djrin0ZwZ13vPdBSDim7VjXHFAcHy6A5mj4MgJQGs2z2Dlo3mnOgZ3n+iAj/CAq9sHUfnu9NJSmg9J6WVryhdb00EMHtLRDSE9d0FsfLKETltILS+qGWv0bn//Dr9zi5GjBYaFbZ9apnGwOdIIW/FURbjRLUfrqzlx66VU71I6H2v4rGYO5dZ3TOaUnFRcLD8PCsWTj7bnKp9dEP/bk42M6FiC1Ya6DI8OHcy1iNg/aYO5cRpVNB4Sj35YtPFoIA39NtLNXiDk6GtepMa+j5k7M0RHIEWbXhrlz9Id3fSHH0bFle+7pZ/bV66VL8xKl9bK05Aut6aGHDuilB1raNIRyadz30AfSWTrO5lhKLyypW9T02y2vkGZhAn2isq7YBXO3CY25VRH7BGwJws2qF730trZDbf+VjMHcus7pnNKTiouFh2FqQ7WBjbfnKl/qETWgH8C2aZifrafSIssiJkOMhUz9ap0anSPPwope0oDyJgz96CVMZQMZUoJrIMxfE+3sNezv6Bw7dmPz1xiPjXWuNSc4aq6AnSexuaZ5as9Tc1ZzOzXv7bpNPlaP5P310jfgd8PUpqWQL9SkhZZyix46oLUultKxMkW4f/aAutaMszmW0gtL6hal/XbTd3J6DqAl6Tk4W1lFp8ZwB+cG7uDcIBUXCw/Dejk4pOdZfc71ZeNQH9h62rRgv0ujZ/rnHBwMK2SB5//5zg760UsajujkewugIxAu/CUDzl5E39H5xje+cdPrpfleWczB4Rj7jo5e2MH8YH7FvqMTe+saadCBzrmXEdjvRfCdHGQoA/NXb2xjDfDv6NyMvvdQ8/0P5Fu+vN1SbtFDB6CnpH+nKB0rUyzxvRfKVDPO5pDelteFp1iqzJbSlx3sODkYG1BjKK4Sd3BW6+BQP70Bqxeh0dtCy9v/aEcmS2n/uYOTfsnAuJluOTj0CW2r38ZQflMOjsY0LxPA6JExFjo7yFsHR+n4YjR5YcipDOi3xp11cAADDfwlA85eJnwZwdxb1zS3NEfkEOGs6O1pqZcRyLlhjkmfDc91dPSbWZqXpPeXEcRBf9guJSC/Xxyd0v6doqcu9RHzpJeBT5k0zphjvejVFzFU5iWcKCidC6OTI2Nm1b/pUgrl7PEbKj2oNZBbWbWD07t+GmvW8K4Fg5lNuaYdQuM+lyUcnLlxPaUnFRcLD8N6Ozj2Wp/SyungnAV1zsGxd23k7IAML+RjDg4Qhn6Mr/HaGGH2KKNvNKy2jDv/Do6zH0i9dQ2mHB3FM4+YQ/Z3dGKODndL5TyNH4BF7u5MOTp8EstvWVEG8sTusEaLOzpx9pOjU1sGUdq/U/R8DfKSjk5Lu8dQX/TWC0vqBjsX5tr54G995re+JmNmncEoghqDtje1BnIPjj9zodqwzyU0XnuB3l5jrcTZCFk3BwdSOqf0pOJi4WHYkg5OqI8FmjgMo/E3a7Y2uDkHx55jPLGYAa+0xXFKOTjoJUyOTsq4A8rDW9T8Do6zXwh/R4dH18Z5t/UXzgEd5eAwd/ToWszRwTFBdsq5mXJ0mNM8iqZH0/R7WRhDoWPjjk4ca9ypXUpAvqRNQmrLbUFHi7MlSvs3RWubhqCvZkxM0aPdYyylF5bUDeo37ICpdt546qmn3pWhsK6w6AJGzDrAZsDmsOryrKIdyEObX898pLfHWGtth5r+m8uTDVxwp8Ea8SnsHYkYU3pScbHwWJh1Jmy8PdebTJ4/eKHawQE5SoAcqCwxpyZ2rrKhF13o0VgKwzjKiBO65ij8Do6zX2l5vTRHzSmw84mjPmDQnCR+6hyQBzuPw/WBD3r04QtliF2DXkZw3yMPjNdzsI6h367RU2jdS63LMWrSQCodbTQF7ac+q0H9XEtreuihA3rpaW3TEMoFvfQBOpmDmpu9WEovLKkb5tp54wtf/3Lyd3LWAQYeLNVAJWgSLNlhKZYeKNB7kouefdjSDrX1y8lTdUQ/ID+FxlGKqfhUXCw8DOMaFGbjY+evP/3icPbua8OHH3p0p/60B8ZKiYODgSJZ2p8jcF7i4MjAApUV/VYv4Sq/6iuUxh0cZ78z5eiEc0RHzSGO4ZrGPLQOg52bpEmdg9WvtSC1Tkw5OuRLGU5/+yfD8ePHh3uefHhMP4fqoPmfg9qlhJo0EKbTWjuH2pe2KYX2V5/UorFSS48yQC890NKmMdBH3+b2aQ6t7Z5iKb2wpG5ItfMtr5BeJ8KFcDeJfaK0KuwGsBSqH5sTxmovevZhSzvU9l9JnjLi59oQOUjpnGqzVFwsPAwL+9jG23PV2T6iRjx1A7WhwmL6wLadlQXKwYLExgTozHVwiAfCbHotcoTFjsIdHOd2wTo6Jy/cuJMxNUc4xuYS81jzN9fRIR2gw8579GtNSK0X4Xpt1x90sd6s6+ulS9NAbbpWu6S0TUIoN9Smh9YyiF56ettCtX07xRI6oUd/plhSN6Ta5KZXSK8TS3ViLS1v8Wqh18SdovekFj37sKUdajcCyp/7ogtktclPtSFykNI51WapuFh4GBb2sY2352rn8Ds44zPU5o1lvDWNLy3H9IHtL+LUNqC+iL1YgPBcBwf9cy8Z0FH4d3Cc24nYd3Rg6js64csIxldLz7yMwH4XRy8mQJ/97s7Uywh4Zt9+x8J+J0drDWVhnqOP5/1Lv6NT+gXzmu8U1H4PoTZd6/dJbJuXpgXStH6/prUMopee3O965EJZavp2iiV0Anp7tGEM9PX4LlaKVJuspZMTGky7DQbb0l/2j7HXHRwM23GTa1wkdsvBgZw01ojfjw4OMqqf3pomQwiDY1y4TH45Do69a2NfLFDyFjX0yvCBqZcMgL8m2rkdmXq9tJ0roDkkB4c5NvUygvCta6Tjzzo3Uy8jYI2whok1VA9evj7ObZUF2dCgL3F0ahyClOE0RU0aqE23Do5OS3poLYPopWcvOTq9nYZebRgDfUvpBrWJbee1c3JCA223WYWjEWM/ODg99LqDk46LhYdhPR0cpde13o6Ew4MhxAJT6uCknJ3ct6hxlFEGHFMOjj+i5tyuzDk6ws4d3T1hjs05OnJGmOsx56bE0eGcPHGaXv/te28y4FvfurZXHJ1Sw3W3HZ3W9NBDB/R6JfRecXSWuDvSqy9iLKkbwnZeKydHRlGPT/97sFsODu2Q+5hULdYBYOPoRWgUt+AOTjouFh6GLeng6BpHBEOERfbE986NRhO/e2FlQX2RcnB0jjzGEHqBV84SD5Q35uDIKLMODnBNedzBcZy0o6MPCOxcynV0mF/IIMu+Pc7nhHMz5+jw46B3PX1hdG7QxSurMVZCx+Z2cHRqDFdbrxqjvNX47GG89tBR078p0IWO2jYNoSw1Y2IKdLa2WYwefZFiSd1g23ltnJzQgNptdtPBgSXzrXUA5ujZh+7gpONi4WHYKhwcmx+LCQYPunB2+GQXWVBf5Dg4m+YRNRwcwOjB6ZlycMIjZcF4O3/gijs4jrONdXTuPXx8OHJ1yyDcni+puRRzdMbv6WynGeftlkOS+o5OjqPD924A/eMd3Pcfu8kQckcnD9WLPqgxyluNzx7Gaw8dNf2bgrTr7uj0aLMYS+mFJXWD2nnji1/9Uve3q2GMlMCiqQW1NO0SUB5YdVlWka8MStoaQ7IXGKcyQMmjhdrfHBA19bPG9Ry5dZWcjP0Qxb/62fu3Q94jdCJELDwMW7WDYx1SyWouc24dmdT5aCiZPlA8EMb6AIRJf2iM6Sj8Do7jxGl5vbTQ/NTaUPN6ac1X6dcaklpfwg+wYh9olbx1reYDsbB8KdAtavc026YlqH2pV2laqM1XtKaHHjpS7UB4KegBdPVA45869kJ17c1SekG6mVNLsPH5P/xKdyenZADJgFmqAUtZYuDloA5eMl+1tTaWXqATeuhtKV9tOUryzM1jTqeNl87d4MyZM8P58+eHh37/ozsGBnMAQ6TWwUEWMB6Aua2FjI1GRoXOZfSgN+bgoF/zUu2WOgp3cBxnmhJHR+ia+am5CZr31jC1c1vxOtdcRZddL9CrtSS1zsw5Olyf/ePvjb+jc+rUqTH9bmDXI6E2LWXV6YC0sFvpoYcOCPVo3Nag8duiw4I+7Xc9YN5Q3546gXJCb72gNi39ECCHXf2dHC1OLHIYULsNCyuwUK6ScEFfgnAj6EXPPmxp/9r6leSJLJNxrq5z/TkVn4qLhYdhYV/YeHse3sF57MnHx/RaxGx6W98wvzkHh76QsQNcI2PDkcfwQe+Ug6O0ggWRhdwehTs4jpNHjqMjdG3nseYoaP5POTpWpw0P1w2tKan1Jlzvda11gLXkhW/9eC3u6Fhq0gDpILdsItwTSrFtXkNreuiho7UdLLV9mKK2b6fo0WYhNXMklyV179p3cmylen7xvZYlBloOvSdMiuPPXBifd15i0PdaOKCmfLUTRG3PF+XnQFab8VRd5/pzKj4VFwsPw8K+sPH2XIuffUSNZ1fH579fu2HA8Oxxj9/BkZHDOc/ioxdqXhMtAyn2cgEZNuAOjuPks/Rb1/QdHft6aeZ97ssI7HcX7DP84XdyyE9lpkzE+3d0/Ds6orUdLJShpg9ToK+mb6fo0WYhNXMklyV174qTs6TXVgNGGqy6LKHhuBRLevUygltobf+aH2otaXtrxO83BweQUf0wDnBwZNCMr4dlATb5lTo4KWen9DXRKlPM+MLAcQfHccoJHZ1jb7z3xjUI5x7HXEeHFxLIuUFe8da5qXV0rh85MK4hlIX5z/oUGkru6OwPR6fHa6Fb28FCGWr6MAX6WtsohHLxEqCeToOdI61tGLKU7pU7Oevo4LBA53ya3xNrfC7JfndwqF/pHaqStrdGfKuDgx5etxySShsLD8N6OjhKrzs4ODjEcYeHNmahbHFwdI48Rg0ODkbTkZcuj/FAeUscHMDAuXL6nP/Qp+NUYh2dO3/tgeHQiSPjvNLdkXAOcpxzdGxanB7CUs5NiaMjg5d1A73I8iZGZP2ta3FUL9bfGgOSMrYY4a3pa/olRms7WChDTR+maG2jGD3aLKRnG4YsoXvlTk7Np+5LYY3AVbKqfG8HB6e0fiVtb434Hg7OaNwHkzaVNhYehi3h4NhrNlIeM8GAIZw7PD0cnE3ziBqGigwmOVPolfEUGleCa8EdHHdwHKeNuUfXwrnIMebo9H69NAYaa45+R4e7Nzg3HNEbOja3g6NTYwxTL+pDvWoMyNa7Ke7ozNPb0enVZiE92zCkt+6VOjkYWyyEPY3uWqwRuEpWle+SDg6bGhtJC7QD1JZvaQeHurIwyOBPMaeTeDkDoZ5U2lh4GLa0g2N1sDDqdywwauz3dUBjotTBUTyf/uqZfRwdGU+hUSW4Fv6ImuP0o9bR0ZE5jCxrztR3dEodnZseod3idv8dnVpjGFnqQ71KDciaNglpNeJ7lAHQU9sOIZShpg9TtLZRSK82C+nZhiE9da/MyVnC6K7FGnCrZFX5Lu3gtOpVO9Q+IrgKB0dG+e3u4ID00F8sPBgzsGOYNDg4QBj65eDEjCkhIwfcwXGc/pQ6OoBzwzXH2KNrtY4Od2vQyR/rBWuQNSitQeiOTh7I1hqQNW0SUltu0aMM0NIOIeiq6cMUrW0UYtusta6Wnm0Y0kv3xlNPPbX4K6TtorgOLF0WDLYQFn3ylWG3FOQDsTK0gBFMm6X0YszmgKErg7oGXk8KGMq5lOZpDfQUMtitM2IJHQdL6ESIWHgYtlsODg6llQXKAbQV4Woz234qq9qr5CUDIXbOuoPjOMuy6tdL23Or36436NValFqnwg/kYh/QrcsPhlqm0lCGFLU/mkk69VlpWvVTTVrISY/MFLSVyt8C5YBWPaCxq3FfAvUJoX523+vBUjqhVK/SLcniv5OjxadmIvSmxkCuIZycvSbjHC0TLIXKPqc3NkFDWidXTfqSNMjCnLzk1p2lf+hTGxTnwDUyNlyGC3pLHBwdLeoXd3AcZzWU/GCojnYd0BwHrR9Tjo6d91onlA60fmhNSq1Xc44O1+vwg6G5aO1LoTabk4uhvquhJV+YSq9xMwfjAzReatH4y813CnSVlidlI/e2WzXXKF9Pu9zu87lgd+QQzvUSFnVy7KKz27Q0UgvWOMzt0BqWaOuaT7BStLZ/Tf1K8lRd5/ppTudUf6fiYjrDsLB8Nt6eq510B4cf+iRPFm82FJveliXMz7a3lQWNCRkp9hy4lvxmg4Njj8D5ubuuuYPjOCtEjs6TTz45HDt2swGTmrOa0xw110HrQujoSB60RkiWNUTnIHmtTal1K+bYcK31hDVpP/1gaK0NYNf3cM+ao6ZNLK3pQTpqym9paYcQdEFtnUJq+zZFrzYLqR27OdTqXuw7ORSIZ3J7dUoLGrw8F9zzmcE5lG/vgRTSewJAj8VHtA78mvqV5Jk74ed0TvV3Ki6mMwwLy2fj7bnayT6ipuda7fdoeGuaLUuYn21v4iQLGhMxB4dzXiCgvFp+B8cexdtnL/hb1Bxnxeg7Ot/4xje6vV7afkdHawbyxI/rQuI7OrG3rtnvQtjvMoTfySE/fb+HMhHv39G5kV/tdx9q2sTSmh6kgz2mtPwWtQPjpKTdY6Cr5lXfKXr8TpCFNqrt8ykoW83YzaFW9yJODoYR9DS6a7FG2pQB25tV5Us+vZ1Jd3BuZU7nVH+n4mI6w7AWBwds3hd+7fi4QGBQYIjwhqIwvxYHh3N+rwL58fWuW2D0lP4Ojj0Kf0204+wevV4vbR0d0iLDEaeHsJyXEZQ6OshQBvLhd8pCo9odnRv51Rq9NW1iaU0P0sFeVFp+S227x0BXL0enRxuFoKO2z6fo2YYhNbq7OzkYRtDT6K7FGmlLOhohq8p3qbbu9VtGlM8a0KW4g9PPwVF6jAqu+QSVX0PmjWb6gdJWB0dl3Xzz2s4dHBwc0Ke1GDvolfETM450FP4dHMfZfdb9d3Ss8SNjn9/V0W99URZk/a1rcZCtNXpbjfAeRrx0MIZKy2+pbfcY6Krpixg92igEHbV9PkXPNgwp1d3VyZHhVftq4J6EBt6qwDBlwCydL/WD3g4Ohi4bgjs4N5jTOTXOUnExnWHYEg6OvebTJW3+ODtL/NCn4vnkFsOGx0SmfgfHHoU7OI6zPqzr7+hgqFlHhx8OVbm0rlkD0R2dOMjWGr2tRngPI146GEOl5bfUtnuM2r6I0aONQtChPmd+9aJnG4aU6O7m5FjDa7dZlaMRkms4t0JbQ6sjElLjWMRoHQvu4Czr4FgdLBbHfnFpNAZ4lIRFA2MEWRgNjgYHBwijnFO/g2OPwh0cx1k/1ul3dEJHB72C9c0amKFj445OHGRl9JY6CrZNStNCDyMeHbXlt9S2e4zavojR2sYx1Oc96mrp2YYh0j33OGAXJ8caTbvNqhyNEHdwbtA6Flbl4GCAs8mlmNNJ/JIOjspn4+15DwcH0IPRwd1XFiIZJ1dP3vg0LOXU2HN0zzk4lIEwewcHZPwoX+EOjuOsL3OODjC3heY4awBrQU9Hh6MehyV/1jZrWFkD0x2dPJCtdRTUJvRfaVqoadOQlvJbats9Rm1fxGht4xg962qR3l4vYbCgb+57Txtf+PqXk6+QxoiZA+NGRtSqCY3L3XZwWMB7Ox+W0EDtxe3o4EzlMaeTeOs4WFJxMZ1hWFg+G2/Pezo4am8rqx+JwzCxTkurg8PROjQyhoScHHdwHGdvsOrf0bHn0gOc2/UpXD/BrnfhWhvbG/baD4ZOUbvH232h1KZSm9Skhdb00FJ+S227x6jtixg92igkrCt59MDO695o7sWYdHKo6BRauHYL8l9nerdN7/ZmwKmPOW8BPdrAapgqR2pS2I0vByYC7YcxnmJOp91gVS4tLqkFNbZAxhYSTVQWPxtvz5d2cEDlQF5jLubsIE97IFfj4NgjcO6/g+M4e4vY7+hMzXWOWhO0zmjd1zo05+jogxitNwoHrUPhOgp7ydFJGZfUHab2sRi1RuZUfvTJFNTN9lMpvdKD9plaeukBdEmP9K4rPeorerahhXGdGivVPwY6NTlXTc3i0oO5fFOLVCm1i9oclJ3Bpg2mFsYB1OqRAZxKL/0Wu0jMkTux5nSm9Ch8VZw5c2Y4f/78cP//4N9MOjThtZ2rOQ6OjAvOtXhQbzkzyLPBEdfDwQG/g+M4e5NV3dEhTDq0xmgt0jloPdIal1r/wj08dn32j783HD9+fDh16tSYflXYtTGG2qEE0kBpOojlpz6bQ3tArnxIbXo5dBof9Gupk2exe14rsut62NAat4x/9vwehPOmF3b+9Samu8rJkWH06mfv3w7ZPcJFaVWsKt91H2it5aspR0meuf00p1NjPraIpOJiOsOwsHw23p6rnXQH57EnH99Z+Nl8lHdYljA/295WFlQO6+CknB10cO0OjuM4sKSjozDSaX0hftM4N/YcUusq2HUwXIN1bcv43NPPLH5HB3LlIaxTLrV7f21+oDahb2qM8Nb0YPe7Wh3Q0g4htX0Ro1f9LD3raulZ75BQd/GLB2xD9viyUws1i0kPVpXvug+w1vLVlKMkz9x+mtNpx3y4eKTiYjrDsLB8Nt6eq53sI2p8yY4vVvJlW+DLt3z5zpYlzM+2N3GSBZUj5eBwzg99cs7roMmXLw/zxU7CgLzQj17COKaMG47CHRzH2fss8YOhhBHHmxmRG+UzXkYw9XppvlRtvwQevnzg+pEDW+HXxzKSJ2lX8TKCuS9QhyBX80Xx2i/A1+YHrV+Ub00PlH8/v4ygV/0sPetq6VnvkFB3kZNjDaNenmIt7uDU0dPBYSzohyRLIT2bWUk5StpkPzs4YPMeHZwteQwAlSXMr9XB4Rz5g5ev7/yYH/lhqNCP5OUOjuPc3vR0dHBs5Nzw9jTCcGTGdWkBRwcZysAPGPOmN5sWY8kdnTajt9VRaU0PlL+HI9DSDiG1fRGjV/0sPetq6VnvEKs728mxhtFuOzjQ61f5S1lFvqGB2oveDs5oYFdMItJDSTlK2uR2cnDIm01RhgKLGz/siSOi/Ho5OJvmeeTwro6cHsLQHzNmdBTu4DjO/qPV0bEfoOhOzhI/GIohJGOIHw9VnuMPlm6l363XS+93R6fFCG9ND5QfHYyn0vJb1A4lfZXi+tGDReNkCtWvpY1CetbVUjsGc0A3P3Se5eSERtVug9HG4ldiJPdgFflaI7cnSzg4NWOB9FBSDuWZc9fodnNw7LU+jcTxwHjgnAWkt4OjeCAv5gQGAsz94KdwB8dx9i+1jg7gZLC+jHeMzaNrSzg6GJeb567ulIG11zom7ujEqc0PSEtb0CY1RnhremgpvwU9pX0Vo2acTGHbiLnQg151DakdgznQprNODkYZDRUadLtFL2O9lFXka43cnuwHB4c85xaz29nB0bV0sMARh1Ex/tCnkQWVo8XBIYxyopcwHBwIf+BTR+EOjuPsf3IdHdCaIQeHNcU+utbb0WF94260Hk278Gtbes9cHg2t0LFxRydObX5AWtqCNqFt3NFZztFprZ8FnTVjZY7aMTgHbTrp5MgoCw263cIdnHL2i4Mzl+c6OjjIsoEy0Vbp4IzyLGxbRgIGArdscUCQBZWjp4PDUUZKzHgR7uA4zu3DnKMjtGZwtI+uLeXo4NyQBzr12JI1tNzRyaM2PyAtbUGb1DgqremhpfwW9Kyro9OjfpbasTJHz0f2LEknxxplTPDdxh2cctDL5tBa9tCgLoX0UFKOkjzX1cGR7KodHDtmx4V3+8u7bOb6Ls0SDo79dJajdXgwatzBcZzbj5ijk3JwdFzK0eGtaaxF49q0pYs10hqB1oBzRyeP2vyAtLQFbVLjqLSmh5byW9BT034ht6uj07veYuOpp54afyeHhcWiRSgM7wmGUg4scJArPweGXA69foQzNJgtocHaC/RCiWMRo7V8NeUoydMdnLSDY2WBcoCMB45LOTg6AueXLl0ann76aXdwHOc2ZVU/GMrapXid27XIrofoDddluPmDopvX8Nie88qf/GAtf0cHStKArXsJYRuWYPeqcP/NoTU9tJTfktt+jIMpNHYZJ7k26xSyZzWHeqDyTUGblqI1oBbSi50fA1WD927YKchrDspCZXt2TE6jtzayxTb4KulRfpU9R1fYR2rnkr4jjdo+J53Gx5QjqjGtzS1kaszH4mLOBYQLbbiZ2TT2fFUOjurAOXBt60Y48tQZvT0cHPA7OI7jwKodHekAGx6ui+H6DOvk6CBv65lLTRpQulLU5rVpgfQ1qJ9r0ivtKsktp+ZCD+gX2plx1wvmjOZpjNKxB3b+1txksI7ujpMDpRNvaWo/UWhlFfmGBmsv0As1A8vCIsfA1WaQAwNTMPChZLGbmywWyc5N/jkZ4iEmk4pTeE/OnDkznD9/fjj5B58ar8PxEbtObchWFjSnZQSofbWIaOFDnj5Erzs4juMswSocHcmD1jDJssbpHKzNM7Wu5jg65/7+t4fjx48Pp06dGq97YdfUcI3NoTYNqP1KUF/VoLQtxnFpemuDhWOgll52pMYZ47WHrdirfpYlbOZe9b7Jybnvm2dvmrC7CR0Bqy7LfnBwWsveWr6aSVSSZ64zPleOqTxTcTGdoWxYPpvGnmus6Q7OY08+PurRxi59of6wDHbMWllQOezmb8/Row0QHVy7g+M4zpIs6egoTOuX4jeNc2PPIbVeg11fw7XdXivP555+xh9dC9qwBLuHhftyDq3poaX8ll72pMZJS50svepn6VVXS49677x4gALyBb+eBayFDoBVl2WJTgrpMQFj9Gqz1vLVTJ6SPHM3hblyTOWZilO43phmwyQbls+Ww55rrNlH1PiiHT/kqY390vuP3aLf6gA7Zq0sqBwpB4dzXkSAPL8VwZd9WQP44h/xQF7oRy9hHFNGCEfhDo7jOClafzA09jICwojbODCMa/S4jmW8jCB8vTRrqf2itv2SdexlBBy1LvK6/nV9GUFpGqj9gjmytV92Jy1tQZvUvEygNT20lN9S234hGifs3bV1svSqn6VXXS096j06Oasw7nPBUINVl4V8e7yJbIrQYO2FDF8W2BYw0FkYasuncqyDg4PO1I+HTtUzVZ5YeBjW4uBIHxs5+nhrEAuGrtFvdUCrg8M58ptvXrvxw3tbBgb5sVkzF8jLHRzHcZagp6PDGyT1FknWstbf0WFNtUagNeCso8OHUuSHU8UHRnJU3NFpM6RJ28PR0evBa2gpv6W2/UJ6GPyWXvWz9KqrpbXeB3/niY99zR2c5fO1RmhoWLcQGr61yECvLV9NOUrapNTBQWdsMkzVM1WeWHgY1sPBuVnf1ua4taEDG/G4OZn27engoJdH1PR6aTZt8pbTQxj6Y0aHjsIdHMdxcml1dOwHM7qT0+N3dOYcnetHDoy/tcOrqMl3L71eujQN1P6GCbK1hjRpyY98a4zblrxFDx1gx05J+4XQBi1tEqL6lY6HKZb4vZuWeh/8zX/vv/u1JY37XGQItt6NKIV8Yck2wACmc6yR3ANrPLew7g4O3PMvXx83tql+mtO5Vxwce80GzDmfUurO1BIOjuIBJ4eNW04WeceMDR2FOziO45RS6+jomnVrvBPd4Xd0ch0dPeZrZfezo1NTNoFsraNAWvKrvSPTkrfooQM0dtBV0n4hahP6opejUzoepmgZK1PU1vvgh//Dvx79MdBVYg3BVUK+sLSDI6MyNKxb6NVme8HBwajH6L7dHJwb+q+Nz5iPj2ZsnbNILungEIZ+9BKGgwP2hz3tUbiD4zhOLbmODti1iDWKtWpcH7fWrqUdnTvOXB7LQLnQG/uOTmjguaNzI78WR6fFyWhNDz10gDs6bdTUe+fFA7uFNQRXifJd8s6ROzi3Yg3znDztXYsUczr3qoNjdTC5T3zv3M4vdbMYSRZUjp4ODkeMCfKE0NER7uA4jtPKnKMj7BpkH11b0tFh/eTuDWVhPbbGqjs6eSBb6yi0pIXW9CAdJe0VY50dnR7lEks7Orl39w5+/Pc/87WDV64PrX81DWyNuFWyinzdwbkV0lgjfg53cN5rX/SwibN5I8cdFmRB5VjCwZExYR0c4JoN3x0cx3F6MeXohB+yrNLR4fs343q7pUOGsjVW3dHJA9laZ6MlLbSmB3SUtlcMO3Za9JCWPqAv6JNWR6dXuYQdKyXlw76K+Rn64ztxvBGWO6t8Bygmo7+NL371Szu/k9OCjJ/esIj1RosjRt1SyEjEmOyFDNReDg4bw5QDkSI0wHMIjfg53MG52cFRW0hWzonOl3RwwiNwfu6ua+7gOI7THf2OzpNPPjkcO3bspnUntTZp7eKoNQ0IY/0LfzBUa6LiY+c2X/SG6z3Y9TncG2J77St/8oN98Ts6NWUTYRuW0JIWatNTX2HHUi0aY7QferiuBT2ArhDqWorm1RzILUFO3mKurDf9GOiqKBlkdmC1wsAEOR4tgyoF9codICVI51KDCnLLXFo/GdCk0cYzhSbllKxt55QjqQU4XIjCxUWE4TEHJFzY7Vi250s6OMgC5QDKYstt6825Nm309nBwwO/gOI6zJEv+YGi4Nipe59IDdr0lPFz3YTcdnZiNVGOEx9LQHlPQBmr3EpQO7L6Sy1RaxfUmlVdN+S0qb2kbxtDYtZSMAUtoL8fAZslF45j5VJJujnAuhqzcyZkr0FKsIt+5xaiWXmWvWSwtOYM+xG4aOSDLoqHNKYYWSOnk2pKzAIZxsXCF1XLmzJnh/Pnzw8k/+NR4TT9SP03y2LXt5zkHh/qrLSi3dWDcwXEcZ6+zG44O8dJj04HWT63JqfU63Gtjey+Ozv1vHBpOnTo1Xtdi1+YQtUsJNo3abg7aCNRmc8jwtntTKam0uQZ02H81oAPUpzX0tBt71Mlix3QPVFfm06ocnZU6ORSEyfDqZ+/fDlkNvTs+Rs+BaulV9tby1ZSjdEDnTCiNoZTOqTxTaWPhYVjYfrY97LnqoDs4jz35+BhHmNUX6rc6IMfB0SbNOWm1MbuD4zjOfmHVjg467Hqt8HD9DfcByHV0VKbnnn5m7R5dqzFsa8omasoowvYvpTU91LRXSEv7hfSok6VH/SyUT/PJ2mGtpOq9srer2Yq1fjmqhN4dHqPnALX0Kntr+WrKoTxzB3LORLJjKKZzKs9U2lh4GBa2n20Pe6462EfU+PIeX47jy7HSF+q3OsC2hZUFlcM6OJzz5h82Z/LRl2Q33cFxHGeP0/qDobkvI7C/B5bzMgK+8M0abb/Mbr+4PfUyAsrOm11X8TKC0i+S13z5vKZsAtnaL/Mjb9u/lNb0UNNeIS3tF9KjTpYe9bOggzpSV+rcyx9I1XslTk5o1K2K0HhcAndwbsUdnJu/g6MNl0015vDY9q1xcHR++YEjo4MDB69eH38gzx0cx3H2Oks6OrylSa/JJ6zkrWsYa6zV1riyRmHo6JCfyixjdmlHp8ZIrUnjjo47OrmggzpS1yUcHTuOFndyrKEWGp9LEhqPS+AOzq24gxN/yQCbHQ4Omxv6uLY6oMXB0TnybMY4OOhiESEeyMsdHMdx9iJLODpKi4zu6KScmxZHBxnKQH6s96Ex647ODQPVHZ332q/V+O9RJ0uP+lnQwRjpUVcLeu04WtTJsYZazDhdCuX7+m/fux2yDMefuTAunDUORIpeZXcH50YcEyiMi+kMw3o6OOjj2m64hy9eHR2R3g7OpnlEjbrDxoFhx+lBr8oQMwp0FO7gOI6zLvR0dHg8jTs4rJutv6ODscbabY1KaxTa9RbZ8A4Pxpg7OrcaqCUgb9u/lNb0UNNeIWo/xmGr8d+jThZ+k6amX1OgA13Mvx7lE+hVPyzm5KQMzKWxBmIvzzBGjoFeSq+yhwZ6KZRjPzg4sbiYzjAsbD/bHva8xMHRtT7VY+Nlw2UyLuHgKB4Hh40VI8Bu9jFjQEfhDo7jOOtGq6OjtZBw1mDslB4/GMq6zhpujUrOtd6yZ1jj3x2dOMi6o7Oejk5Lv6boWT6L+mHjC1//cte3q2F0gTXCagkN1zlC43IplnZwWsq+mw5Obp63q4Oja+uIsPkt5eAAYehHr930U0fhDo7jOOtMzVvXdGR91NoIWnfnXi+dOgetu3YtB6uXuHCPie2fS/9gaI0NU5OmpmyCNoTSdKB9tsSOsbSmhx52otqPMWRtmRp61EnYfm2x8S3MEaDNekBdobuTo4ltDaZaWIx60aM8ll4dwQDRYtk6YJgELRNLC3PJK75LF7Gc8qkcqYk9lWdqUYjpDMNCvXZRsOeqQ62Do0UGPdpwQbJgF5Cpc+Q3MxwcwjiK2OYv3MFxHGcvUOLoCK2FHLVGgtbfHo4OoBvseq+9L9xrYnuaOzo39lQoTQfhfpsL5QU7Dmqx46EW6hDu0bXE5kMPepRNULbWNgP1W9ffyWkZzC2ExmQMDdwWegzYEMoNvQZwL3LLozyn5FkoQIu+rmPYCR2T08ZDPEZ9iPrILkzaiGy43Zx2y8FBD3lxTp3DjVJ1TZ0jTz3Qm+Pg0GZ2jOja9p07OI7j7CVyHB2ha62JHLVWgtbsVkcH+LBwat0P95yY/dTD0ZmyfUoNedWVPEqgDdTugrAcwj0qhu3jVsK8cvJPQdvG6l6D2j23r1LQh2DHSC0ac4z9lO1dSjhnWunm5KQm2NIs0cgxaj7BmCM0hFtoKV+sHFMLI9jFbm7SSZaFgjKmmFsMFB9bcLTIxRYosOEKq+XMmTPD+fPnh5N/8KnxOmy/2LWdtLavJKu2sW2q+RQ7Rzftit4SB0dHYdvFHRzHcfYiq/7B0NS51lPp1xqfWv9DuylmR+Ho3P/GoeHUqVPjdSl2jY9BWWFODtRG1Ed1LIE2AtLN2Q0W+gJiH2zClP0Utn8ppAf1Rw097EfZCoy3VnuxR53EEjZ4a59Zujg5sYm5CpZo3Bi3m4MzR2l/55RvrhxTeabGQUxnGBbqJV6Ty8pqw9MdnMeefHzUB1ZfqN/qA9sWVhYoBxuNdVqWcHBiR3dwHMfZy4SODmubSK19WiM5au0Ercsljg6y6OQctC6H+wrYfSDcg+y1eO7pZ/bVo2u0kd2rc6jJT4TtXwrpoSZv0VJ+YW2G0vYL6VEe0dKvKVr7TDS/Xa1mQvVgiUaN0XMgiHUZqDXlKO3vnPLNlWMqz9Q4iOkMw0K9xGtSWdnQweERNd4Iwps7eEuP9IX6rT6wbWFlQeXgVc9Hf35pPF/awQFeofr22QvDT//0h+7gOI6zZ7FvXbv38PFh46Fj45vUal4vHf5gaM5b10ivdCWvlw7fsmavec31mx89ue/eukY7cix5a1hNfgJ50tW8sQ1IU5u3aCm/IB19St+Wtl9Ij/KIln5NQZla+kw0OzlL/FbMHHvZwaHsDNAeZXcHZ3ccHOnTa0jZAJmIVr/VBzkODo4MDg46Y84O8psdHRw4f+CKOziO4+wL5Oh84xvf6PaDoXOODq/p12upb3J6Ghydg5evj3r5EEqOijs67Y5O7aupoSVv0eN3ZkhHevS0OhQ96iQoR69yCcrU0mfQ5OQs4QTMYY1TFoalWMrBkbEaM+hLcAcn3pYxnWFYqJf4UgdHMpfef2xcJMI7OjUOjs4vP3Bkx9lhs2XRQH6zs4Pjj6g5jrPf6PmDoVOODnH6QVHio3d3Kh0d9PKD4LqWUeyOzt52dGr6JAbp5FAw3lporZPFlqu0X1Ogs6V81U7Objs4S+aLIcoC1zOPlFFew35wcNDJREiVYyrPVFvG6haGhXqJr3Vw0Md1eEenxcGx59zN0ebLJ3vu4DiO48yztKNDmNZcxVvnptbRCe/ghHd4MPLc0XFHB0hHespCmVporZNF5aJ+pf2aoqV8G1/86pdmXzyAEWVh8kMYPgcGXAsy7qaM51YwRKFnHimjvIb94uBMtcdUnqm0sbqFYaFe4uWQWNkSB8deU3c2TP3OUIuDY89JxybsDo7jOE4+S711zcoTtpl4GYE9B63f4f4Ddv8I96rYnrjffkeHNrJ7eg41+QnaH2rSQkveUNMnMcJx1EJOnSh3Dpon1C+0/ZkXNdh5mcvG5//wK7NOji0QmTC5aYhSSgpmoaF6Qdmn0OKVoqbesTarcfgYNICxW7oYhAZ5DqWTMHeCTC1oU3mm0sbqFoaFeu3CYGVrHRzpA9JzrrawsqByzDk4yG9uzT10aQ4QD9KPXsI4atONHYU7OI7j3E70dnQAOcLCtVrrfOoctM7bfUh7BmjfCPes2N7ojk6bs5GblvLFkL2QY88xDkK0t9Mnc2h8xEAH2L0+huRamMsjRPPKQpvVonbADs6h6BXSLYOphfu+ebZoYk7ROlhjAzWFBrAWRMvUgI0RDpRVDFblMSWneqk+c4OXxT5sD9vmLHTExwawFmgrbzeQ3XZw9EkK45U6hPrB1mHqHPnNrbqhV3dwQH1BOdFLGo6Ea4yER+EOjuM4tyM9HB3Jg90vwjVb633qHLTesx9hV6E39gRAuHeF17CEo2PtpBJDXihNCbSx2l2o3edQv8VQn7WQ0g3SPyUDU+3B2ABb95C59rf2QopcB7KnrR/aRz0oKV+2k0NBoUelS1iFY7VEJ+QuJjm0tIHKweIaDnC7kFm0IFP2qYmFHCDLBJ+axLEFTCgOYgtFKq7H4iXQjb4XD705vP3Ts80/9EkYoDPc2LQpps6RtwuW4kFtjV7C7HXsKNzBcRzndqbF0bHhrO/aA1odHfSB9oxwH2HPD22JmG2Bo3Py6J3DA3ffN15T1hZULiF9YfgUSqO9Kxe1t9o1F/oCQiM/x7BvtTNb00/ZaSX0tGVb62RZwsbOLV+Wk0MBoUdlS+jZyCmWaPzYIlRLSxvUTpySO2c55Zsrx1R7pdLSb9owFB6GhXptX1tZbVSvP/fScO6ti8OHH3p0vAarL9Rv9YFtC8myWFtHpcXBIQz90qtNN3UU7uA4juPUOTo6sg5rDYZw/yh1dHSO3nB/ArufhHuZvQbS/eyl06Ojc9fHPnDTXhljas9NUWOL1KRJ7fk51OQnWtJCa/qWelvCcVRLzRiZole5LDltPvt2NQoGPSpZQuuAyWGJRu85MFraoHbCkGfu7x7RfnNvoZsrx1R7pdKSrzYKhYdhoV7b11ZWGxSPqF187c3xETW9ySN8LbTVb/WB7Ssru3nu6uSPe9rzUT7DwSFMb3RLbcrCHRzHcZwblL51DXjTGWsua2/N7+ikznmLGmnH8822HwzlddO8de21n/7lcHXj+p5/61rt27lq8hMtaaE1vfqE8VNabwt5UwbKQplqqRkjU/QqlyXnd4cmnRwZchc+dNd2yGpwByfPgUgx51ikKGl3ygdTsnPlmGovG2d/D8k6ENIZhoV6ib9w+bnh7K9uDPe8vLkju+PgHH5teO21Hw6P/Hf+yo6+d7acnjceeGM4d++1YXjj7HDvjw/s6Cfejp2UgwM4OLDzmtGtMrU6OBxjjo2Owh0cx3Gcm8l1dATXJa+XnnN09OOh5FH7OzrIjj8rsOXggIy8/fJ6aeQoE2UrNfhr8hMtaaE1vTs6ZeSUL+nkhIbcqnAH50b5oEbPnGORYl0dHBtnHYgSB4e+Pv/4yeHM5e8M9//lseGtj9z/noNzasvBOfDD4d6HfnM4cvDEKP/SoR8Mrz7yznDp+PXh7hevDi+c/Ivh3Ac2hqN3PrSjL8fBUTnY4MbFemuz5Ic+Fe4OjuM4zuqZc3SEXVt7ODoHr14f9SGr8FpHBweHvcOmxchzR8cdHSBvykBZKFMtNWNkil7lEnPlG38nByPKwuRlIsrQmgNjrRZrAO9VBwd6lZ3yQY0ed3DiDg59zTnOy+UTR4cPP3vjOzc8ovba+7ccnMO/OZw4/MgoM97xeeja8MDRj+7oh2efeHY8Pnr214scHHvXxs6rXg6ORU6OOziO4zjzLPU7OoSFa7zWb63pNjzcN8L9C7TfAGlAsrF9c7+8XtrurSV2DdTkJ1rSQmt69UlNvS20H9SWQ9SUhzQp7DxJwfzIxdpXnIvxd3KsIkWSeS5WYSkUqhYZdSVosSqpXwzbMXQWYKTmkBogLYOxZpGCkomYU765iTBVzlRcbJELw8K0xGuDsLI/2/hnw0OXPzxcPnNkeO2tHw7Hnnj4JofmO5/8zuj0PHjm3p00cOjnLw1X7z08XHv0wfHatpvVDyqHdXB0DlxLfrODg6N5QNi5u665g+M4jpOJHJ0nn3xyOHbsxh4errXhUWsyR63VoHU9dHTsGq113+4BOgftA+E+Buw70gFWNrZ/uqNTl59oSQv2JU60bymMI423Whg/Grs1kLaWnDynykbbl6J5KRv9prerhRNqVZAvlA6kkkETOiIsLC3QTlAzeFoGDcTyk86psoQDRnXIGUiSnXPktKCHcjFHxJKKiy1uYViY1o5jK8sYuHj8reGZe/98GH62pejDw/DQ0b8y3PPyoVHm7McPDL849K+G3zj3uzfplz7aWHq08Fn9oHLEHBx7ThuhA709HBy4cvrc8PTTT7uD4ziOU8CSd3RsGHbH3DloP7D7mfYJ8tf+E+59sX10nR0dGaI5tBj8tC3paMdS1Oc6r0U6alAZNJ5KUBszxjSOSgidSo0RxmoYVwPjG0rGzxRh+XacHE2kveLglCBDVD+21YtWL1+Utj2dKLQ4MoHnFgxkBWlyJ03OwqDJn5rILYsDWL1hXrHr2Dm88sarw0uPbnk49wy33LG5cOzt4aW3/pvhk9/55M4EsX2jcaQNQNfhxhRzasJz0gFpFQbkRZ8oH46UX/VQXcHWyx9RcxzHqWcpR8fKEaY9e+octC+w12BrSI+uZXuEjknMUZGj8+Dxe8drmNrXVccUxLeg9tN5CSpbju1iUX1LjXygH6HGPo71RynW1mhxLHrZrKEj0UqvcgnbXqOTo4DeTsAc5Au9Khaj1+AI2S0Hx1I7eUrKntNHc+WYik/Fhf2GnDYMwmAzcPC0ELGIWVn0syji4PA7OL9y/8nh6cefvuWOzbtvvDbeyfnwu399vA77hnYDLbK2LKrDnIODPOVGL+mBeCCMflGdOCofHQXXwh0cx3Gcdno7OoAcYeEeoL0ndQ7aPwjTmm/3I+3j4T4aXiN7+ts/GY4fPz7c9TuPjekpTwqVgzxjTkHMlqqxiWrS1Np0U3ZIDjVlFa15Q229Q1rqYelVHtGrXELlO/hbn/mtr6mgtW9xqEEG5JKvp+7dCaLnILFGdAm1k6ak7JQPpmTnyjEVn4qL9dsdZ6/c9Ls1B69cH9+mobTEH3z7nbEtrSzODm/CefHquZ3fwbl6x5bcgReHR390/44+8jz59JXhpYdfGo4ce2g48dL1m/rm8qvPDs/c9/3h6Ps/Mhy+eHVnc7t+5MBOHUocHDaOIy9dHnXzSlHKTr9Qb9JwDDdToc0O3MFxHMfpQ+nv6HCMvXWN9Zzf14Ha39Gxb10jH/Yi+1Yq+xavqd/RYb9ibzn4u48NZ158eXj7jmE48MF7R3sv9ccbqkjPTyBQHvTZ+Bg1bxWrSYNczVvXkJt6C9ccNWUVrXlDbb1DWuph6VUe0atcQuU7+Jlf/djXrDG5ClqM+1xihnIPbicHh/JNOaGrcnDCsDCtbUsri4NDfXmL2tt/+dro4IxsOQY4OQ9c/ZXh0vuP3ZRmOHLncO21Z4cjV+8Y3vrwjTubh06/PJw+/q/Hx9v4nR1tauTZ+kOfvH4UfWyidrMMN1PBtXAHx3Ecpy+tjo6Vw+nBCKx1dHjltPRhsLHfYQRiDGIUWsMw5ujoAzn2GYy+2tdL5xqxNYZqTRoZsCVlA1sn0ufmJ1oM8da8QfVmLFGWWlrqYVF5SvshRa9yCXQc/I2/87tf49NoPhnXX2tBp7AG6VKERnEvbjcHZ6p8OeU4/syFcZEP43fTwRnlX3xjOHvv2eG+jQ8OJ753buf3BtCPE3Pt8PXRqbnyzlvDxWuvDL+845lbvr/DnMHBGTeyyG/f2HPkYw4OEEYbsUlqs7SbJ0fBtXAHx3EcZxlqHR17PcpX/mAo59zp524Q6Wp+R0d3cNCltBh9NY4OZc01YmsM1Zo0yNUY2KqTbZMSWgzx1ryBNLb/a2mph4W06gfGWiu15cI2tH6M/sbfydmW2cEaVqVocqewC4BgItaCIWnBmMQQlZGZotT5cQfnPXLKkcpztx0cyfCSAb1VjfEoHbbuR//s9HDpsbuGK6Pzc0OWtKByIM+Y5rzGwaGcKoPmhj0KO2fcwXEcx1meku/oCF1rf2CNh3B/CvcIxetc+0Rs3wn3P7B7LucqA9exfbfmrWuUI9d2qrGZatLYfb3ErsuxY1K0pIWa9gwJ+z8FeU1hx2MIYzEX+oCxjy7KVYudSyVYG8ly0yuke5BqUBoSYl9iK2nIENuYapxUZS21DQk5+lNo4SlFCyJ5x9owBpOnZNHImTQ5kzuVZyptbMKHC1eY1pbVyjLOfvGBN4cDLx5IOjjos9eMP03Q2IZhZUHlsH0C6ttSB4cwjgJ9dnza8eYOjuM4zurIcXSErrWmc9RaD9pHphwdu5/Y8HD/CfdBYN8Cq1uysf33dnd0lI42ob1KoA/V1yXQX0JjKAc7zkrI0S/doazGbQl2rNag/kvZi6V0d3JihBNxCWomYA6UHWwjk1cpcvJqBg3YxS+X2kkBqbxSkyEkVk/VIYxTuJw3Lep24aFvJWMXfXtOG184eGl49tgPhqM/fSjLwdG1Fh7GaImDY89VPo1DyobeHAeHtLH+Ily4g+M4jrN6phwdoTVcR63tHLXmg/aTmKPDEbR/SNaeg/YT7VGyr9i7lDdxoaEYMxxTjk7MzlE5SD/lFCAnJD+H9mBQO+Zi+6EE5aH0JXna/oScOoJtt9z2hJRda/u/hRrnMkav8kBsvJayuJMjI3HJ11OrIVgAlnZwamjt9KU/DYmVL1zgciYjfcAiockv0K1Fy8YpXIuDriG1+EiPzkNePvry8NJDLw2PfuBvjNcafxobsWvVXXGaUFYWNNm0KYXnKj/ytBfXJQ6OjhbV1R0cx3Gc3WOp39EhzO4jNp59JHYOkrd7la7t/h8aijHD8dzf//b4eulTp06N16C9J4bqmMLu86C9UfWLYe0K1ZU89OHnFLL77H5eQosx3ZIWlJ5+rbVfa+sdct83z1bXw9KrPNDavos6OdZI7Ol8WFobIAVlh93u7N1wcEJy2jiVZyptbGKH4yVMa8tqZbVR8B2cXz7/veHwpw8PH3v+02OY1RfqD+tOHYRNCypHysEJnR2ocXBiR3dwHMdxdp/Q0WGNFqk1XGu99gb2AND+oqc8AHnCZORPnUO4v4Ddz8iLvTPcS+21yvTc08+s1aNrYZlzCff1XGrzg5a0UNOeIbX1trTWw9KjPKKlfQ7+xuf+6te2z7sSGpRL0LNDLJQddruTSxcFKEmTU76cNk7lmUobG7DheAnT2rJaWevg8B2c4598bLh88OxwzyvHh2Mv37iFzBtnQv1h3VUHXpl9x5nL45tykAWVY87BQf7g5etjWr06lHggL/RTBsI4pjZFjsCbfK6cPjf89E9/6A6O4zjOLmPfunbv4ePDxkPHxnV67q1rWvP1Ozr2rWtKSxxvpxr3leBNa7Fz+zs6/NYae5l965Z9S1Xs9dIcKRP5s++t21vXat9Ehpxth1xsfrl1ErVlFaTXG8pK8xa19ba01sPSozxC5SoZb2L8MdDN89e2jMprw7CxFRB5BdvUXyyz0KBcgiUdHBah1h8pVRu8/tv3boeUUePgkCeLZ06a0MiPsdccHL6Dc/blnw/vHrs03P/6/cO1D9w9yvIqTTktUw6O8tKmhMPCZOc8x8HZfPPGI2q88nNcrLY2OPqDsFIHB7iD4w6O4zjO+iBH5xvf+EbTD4ayN+CcIMP+serf0bH7kAxad3TqjenasgrkSUf60rxFbb0trfWwtJYHW1C+BmjcU64pf4UfhJdfs/GFr39553E1Jl4pTJAarDGXC4ai0AS1YSkwRHPASEWvjOFaQqO9lFoHB3LShEZ+jFU5OGFYmNaW1bZrzMGBp3/y/x6OPXxsOPLO+4YH7/74WEbGaEwfhA6O9APlYIzZx87mHBwry7XyRq+O2lhiR+GPqDmO46wvPb6jY8PsvhbuLYq358iSnnPQvpO7z1Em4mP79bq9dS1WxhzCdsilpk6iJS1YOyQnPfmF2HE0BeMphR2fgrAa0FODtYks6EvFAXUXXb+TU9K5sY6ZQx2iCWorMkVOx4SN1tIpSjvVCRZbD5U1t24MYtqFdDlf0JPs1KRXP04tKOvo4Fx/+dXhZxf+6+GO990x3LHx4PCr5z48pkGfxgxMLfzoB5WD/OlPzkscHCAMlF5l0FgLj8IdHMdxnPWnxdEBwrTXa//JdXS0zygctP+E+ydov0PelgXZ2L693xydHPvIErZzCbIbaOcSSFPKVB5zZdDYm0LjRWOyBsYE/QAlfZfC2mtz462bk1M7AEspnRg5hItBLbbhS2AygR1MuShNDhrwNRMJbD6pySPdilNdYnULw2LX4aIux+H5gxdu+R2ccy/8fHjufc8Nh+89PLx7/d3hk3/2yZ1JwLihbPaafBhHYb9pHGuTAa5VhlwHB/2qk2372FG4g+M4jrN3qHF0dNSeFu55U46O9gvS2/Bw/9LeJttGNhrp7bVkYzacHJ37HnlgvJ5Cd5a0B+Zg65MLedRSmheov9RHOdBv1m7JdQ6swW7tkjlDPgU6oMVe1rhoKYfoab/ntk8XJ8cdnPYBWVO3kgGcW8+pcth+DidtakLHFj7KYcN0rYWEa6EFjTjJvP70i8P58+eHh37/o2M51fanP/DG8NLhnwybJzeH61euD7/y7m8PB+6/b6fuckSUj00bbhDaXOw56aQDeeps9dr6oF/twVHYeugo3MFxHMfZe5Q4OkJ7A0ftGaD9KOboaD/V/iNZew7aj7THoV/ppJe4OUeHtC/90x+Mr5e+58mHR90pbPmpq66noG6UB3LvtKiuKmMuaodSW6/FyG9JC7JPWn6CpYfd3FoPS29HZ65Pm9+uFk6KpXAH52bIE3LS5NZzrhzHn7kwfmmSeL6cpj++6MWXwTQGbPjRn18a24UvPY5fYNvYWgRNmK5Jy8se+KLYwbffGcvKF9Y2X9te0M/dePvMi1e3JtqVi8ODWw4OedqXCrx48fRw/fDF4cCRA+OdnDuP/+pw4uXrO3WnTMiPG869W87UVl6xjSHm4HBOuVR2Flr05jg4LPgHLt344hxHu+kJd3Acx3H2Jvata1MvIxBcz711jRfYhC8jQB+y436beBnBTW9d4wvaW5AXeV56/7HJlxHYa/ZK9rzN33l0+OWrrwyX7j44DL9xakwf+2N/54/0456+VSbt+6k/9mTS8kZT6om87IfUH+lqvhiP3G69jKAmLVBm6tjyIgHSqb9z2yqEclMO2rymHpYe5RE5fXrw47//ma/ZtxKUFv6ef/n6OFFLDPRS1tnBwcmj4zF8V+ngUPacN8D1cnBS8SknN+b5h2FhWltWzuWA6JMn+x0cTTq7eL/w8reGzTu3HIrNA6PzdM/Ph+GuK3fu1F11YPGlz+RAgcqRcnA4Z+EmLxwuFv9cB0ebXOjoCHdwHMdx9jZzjo6we0Kuo8OeIz0p5ybl6Ozsc1tOhIxBa2jGHB3trZSJa3/rWr2RX9MeltoyW0rbNwbpatsgpEd5hG2f60dvfLhu/za++NUv3fS4mp2MuViDLReMwRyY9CB5jM1SQuejp4PDwLWGfAktDk5O2fergwNWRndV/uWhfz4cuffIcHBrkxi2/IkTZ04M9zz+mVHe1kFpQRsMxykHR2UnL8nrCOSPfhtnNzN7BM0Zd3Acx3H2D7FH1+y6H9sT7H6ivQTsPkJcbC9KnSsdkDbcZ8Hui9qTSUeY3QO1v9/ub12zdkepzdeSFmrLbAn7uwbaG2jzHChzCs2BGBq7pYT6qr+T09pYTMQ51DjkI6YaLEVNY6Ua3iK9krXlnEP1yH0OFbR45TyfmTsh5haVVHxqcYktbGFYmNaW1S4EOQ4O+ri+/twrw5+/78+HI/cdGTYObQzvvvvucPXNq8OH3//v3lQHm1btSf/ZuzJTDg7llCzp0EsYR3SRRjo1gcMjcH7urmvu4DiO4+wz5Og8+eSTw7Fjx25a91N7g/YOjtpTOBJn98McRwdZ6QydFbvfgvZH5Gw6ZGP7/O3q6JAPhG07BX1ioX+AtCkoUwryBY0nofASQh250DegsTrHXBvRnhDawr0cwSonp3QQ1kBhoWce1sCda0AN6Bh2MbGEAzqFBjFtODWgLQxiDcqeA9rqTaFBbaH+pAvjNPDtwNYCpDA7qNWWOG62f5BBd46Dw/WZJzaGn577F8PRB7bGC3dRt0b1O1ffGf7Nl//Kzli1aUHlog9oB5XRllcLNOVEzjpDNh16daRd1K7hUVw5fW54+umn3cFxHMfZh7S8Xjq2v9h9MdybFK9z9CGncNC+pb0Q/dbRUV52D0S2xtGx9pPKJN1TIAuSn4M6CLVjDsiWEurOyS+0j4Tto5CcNpItIkodgh42fDiGaql1UlNQLpCuYifndnBwpmjtkJq6lQwm1TO82xM6bapDakIRn5qEsQlK+bRIauHRQmIXArswhOchZ86cGd+idvIPPjVeh31or88fems4/fI3x8fVhgNbPs677w7XLlwbPvbuXx/b2sqCrT/nwDUyNhz5TbOoKB3Yeiot9VG9wqPwR9Qcx3H2Py2ODhCmfVb715Sjo30GPTY83Pe0J9p9DRQX2jmx67N//L3xrWunTp0a01pUDovqOEXKpkhh7RfbBtYBiGFtQLVDqbEe2iMltKSF2jJbbhdHp8jJsQmXYok80NkyoERrR9TUjTS5gyi3nnODeyo+FhdrF4XZsti0tl623OEdnMeefHyMY+HSwo2+sK7Xf/nq8Myl/+YmJ0ePq1lZUFm1SdhzLZAq++aEg0M5bdmmjsIdHMdxnNuHGkdHR/Yb7TUQ7pPW0SGMNNq3JGvPQfsY+zB7stKwj9o9OtzX7TX6OD739DOLPrp23zfP7uSfQ8wWycHaIyWEdkgJLWmhtsyWKVsvlx7lgJrxMYXqdvC3PvNbX+NVuqk/3lLFGwruOHtlrMjlB47c8vYC+9fyxgU1Vs5bw3Kh4XgbRGvD1U4eQd1gqYmHbM6EmRvUU/GxuFi7xAarTauyjm+O2RpXKnfo4PCImt7oYd+iFtaV63ffvDicPfDi+NKBjQM3Xpt5/e3rwwf/8n1jWmRBZY05OJzXvCYa/RC+HlpH4Q6O4zjO7UXu66XDI3sLe8xSr5fmFdFAGnTxxiv71qvUW9coE2XETlv6rWs2/5y3cCkP0uTmAfYNXSVvMJN9Upof2LT0USm1ZbbwNrKS9o3RoxxA26k9OMr3mPsbfZOI78J8YaxufOHrX568k8PkCo21KZAtRbpL8sHIzEETEnmM2RJkoPdwcHKdFVGSJjT6U6yTgyMnQucxBwdCeY1H6Vc7/fJXN8bH1Q7fc3jnxQMnz5wcHv/Lx8f+t45KysHRuR2Dcw4OR+TtuNe11eMOjuM4zu1Lzh0doWvtMRy194DdNwXy4b46d45e7cvW3rB7tvZ07Wd2T9S+v+TLCGrsr9I8RNgOudSmg5a01FNjgH7Jhf4X5K2xlgKZOTR+NU7seM7FptX5HJoTKWYfV2vpgFyYUFDbSTFiHZfTUZaaToKwc+Y6LOyknEEnh80uVlNOnJyI1CKx7g6OHBquQTrs2Pzps//f95yc6zecnAfe98lRv9pzzsGxZSNcRyAvymnj6Ff1rx0vtr/dwXEcx3GmHB0R7il2H9IeBHb/IS62h6XOrTzn2p/tfqq9W3Ig2dj+v1ccHcKniDkNtNsc6g/ajHYswfZ/CdbO0JjJQWPIQvmBNg5hDORAO1F32q7EuQwpHR9TTDo5q3BwlsijZkKkKH0mFDSJcj1sO4E0OWKD0IKcJsbcwNbgr5lIShfmEctbciq7rYvKK/lQ5/MHL2Q5OHahBr1ggQX520e/ORy5Z/sV0ltOzuHL7xt+5ehHxrFg86U/7QIfbg6UlT5TOpWfI/mShiNxqoc9Cq7dwXEcx3FEzNHRvpHaU7TncNRepD2VfUsfFIZ7Wbhnog+UDrQPYuPEHJ2UbMzOkqNz3yMP3GTXxFD5Sa/rOZBXHYDrUmz6KWxetG0uavNSZHvU2sL0HdTavL0ci9ZyiNAGrCXp5ISDfQmWyKOngxO7g5FLTd1K0uQOgLk6TMUrznrxWixpX4UrjLJwDlyzQJCeOmkxs+eSeeWNV4dzb10cXzJAOcK6xa7RA9LP8Xtv/xfjiwdGJ+edG07OR3/8/p2yMi5AedtwlR1dcnBi5dWRcmsRDI/Auf8OjuM4jhMiR6f2d3S0B7Hvcc7+NeXoKA3YcM7B2kx2fxXoJS60r+w1+VKG09/+yfjWtbt+57Ht1NOoLnMfBoPKLfkc47fWeKcdIGYbTaH2q7FrW9JCi80K+9HROfjx3//M12Jf5EExX25TWMkXqnJQ4V//7Xu3Q9pxB+dmejg4xNH3/DEOxi/JbbevDVNZ+BLa+AW0h4+OX0zkC2D64v/By9d3zscvOm7JvHj13HDxtTfHOzjInvjeuWHztZu/c2PratuJL7khP37h8oEjwy/P/Ww4dOeh8cUDfCfn4RfuGQ6+/307iz7l3jgw7LzEgDSa0Cye6LUODvAiAvSThjDKok0ndhRvn70w/PRPf+gOjuM4jnMTehnBN77xjeHOX3sg62UE4R40ys+8jIDjwas39l3SSjb1MoIbX0A/NL58h7Jon516GYGuj7x0edzTD/7uY8OZF18e3r5jGA588N7RJpj6Iz35UQb2eNkbsT8rT/m5noN0pKE9OHKdA7r1JfacfASytV/Eb0kLtq9Kyixq2yqEvFvKIUjLONOLMQS2vnyTub+NL371SzfdyWFCgTXYQOElhDossXwwqkthQoqxY7b0zX0iMOUYwG44OCxc4W/bxFi1gyNiDmTM67dpbVlxInSuT5xS38GRgwG2rmHbKi9A7l+8718MR993dLyTc/2d68M9w0eGUwcf3Cm3nB3GiMafyhZzcAhDP7qVZuoo/BE1x3EcZ45VvF4akFW83YvtOVh5iO237O3WHkAGVCbZB/vpZQSQm48I7ZUSWtJCyobLReNC4yAXjQWh8ToFMqXM6bTc9LiajMzSQZAi1qhMQCqlSWWhYUuxEyy34ks2qsqhhWcOyq80c86ZHXgsYKk+ig1wy9SkTU2OcEGJLRg2rR1LKjfncw6O9KFL7cJEDyd9LK/vP/78cPXYKzecnGvXh/e9+fjwgefu3mkv1cE6O2LKwSGMoyCdyqajcAfHcRzHyaXG0dGexFF7FWgPZZ8VyIf7cOxc+5j0a2+d23dJR3zMTtjrjg7yYB3HHGhTUPuof2LQvjHoB1C/hCg+l5SeKchjrvyWWPtoLKbs25x+gHAs5rLj5GjA5nZ+DaUDLJeYYV7DlB4N9hRhR2qQT0GHaUHRdYrYgC8d5EB6DdwYYRztEZuoYZjKznVYL2Q5l0zJSwbsYj210CL73Js/HK4e3XJyNrecnKvXhw/84gPDiQc+GHVwkKePKJPqaPvBhnFUuwld27ZyB8dxHMcppbejY2XCPY94ey49QDhov9Qei367/wq7TyIbczzsywimUHmA9HPInlCb5IBsCVav0ubkpb4QaqMYU46TbJSYg5BjQ7faxr38gl42ejgWcxidnKWcD8tednDmqGn4ksGT23ZzdSBPiE0qLUw2TosOkxq9Y9hWPbWoKMzK2Hi7KCjs9adfHM6fPz889PsfHcsZtkPsWjopH+eqo5WFX774p8Obp94c7+S8c+Wd4cHzHx5O3v8rN9VN7Ujd0KU7OLb8HNFLGtUtrBNwLdzBcRzHcWrp5ehwDexz9g6E3fu0bxIvPaBw0L6pvTbUr7jQsQmvsUv0MoJ7nnx4TBsD3YI8qKMNC5Gtovogn7pbIGQ/hXZGLrV2otqv9C4EtKSFVhu5tq1CWsshSttj/DHQkgFVghokHPS96NVoLXo0AHK+TyNKBk2ug4NOSNVhKj5W/1ifxcJsWluvzWAhRcY+oiZZUN3CduFag1l5M065trJA3M/e97PhzQe2nZzL7wy/8exvDHe+fedY3ikHh3iuY5uHrnUUNtwdHMdxHKeV0NFJ7Tn2qL3K7lnst9ofpxwdUDobbvdV4pUWiGN/tnt/aBvoGhRW8uhaaAvMEbNN5ijNQ9Tai9aeKYW0UJqnaLFxoaXslthPstB3paivc9h46qmn3tWkmIIKlmInaA6UowRN8FKsw2YN3hSpCVAzSUrSaOLOyc5NgKn43XBwQPLo46gFW3Ul3k4q5QXIA7Kgcj1z4MfDlSM3vpNz7e1rw0f+4iPDkbvuHtPZsqm/7UTR+LabR3gUGqeEXbp0aXj66afdwXEcx3GakaPD66UPP/qeUTm1N9kj2L3S7sNyViRHGu2Ldo/UOSAPdq8M92VsAGsj2P2Ua9kM7uj0c3SobwkaAyWoH4G+BI2dFJLLZU5fDOpB2TS+phjv5JR2VC6lgy6306STCcuELMVOwJwGLu00SOlNDZTY4GPyITc3MKlPykmjfWy8nci77eBoYUGX+oJyqsyxhVRp1S6cayy8/Rc/G55/5PnxOznX3ro2/OrGp4cjR0+MZQe1eczBkS5kVBZ7FNIBfgfHcRzH6U3Jo2tC1+xr2tMg3I+JQy7cr2Pn2u+kV3twbH9mDyYPlY34mO2wm45OzMZUmUljPwAXtEUMykWaENpmCvICtS0orASbPhflEyt3jLA9aAvql7I3Ya6f5vqohJgNG5L8MdAe5BSgFAY9tOps0ZMz8cLJpEWDNDHsRNIixCDWQhUjZzKFE6FmMolwUupaOrkO8+SHPt/+6dnh5B98arwO285eq41Aj//FHBy1oZwXJgvhvzz5y+EvP/CXO07OE8f+xiiDvF3IkNUkpw3RrzDlD6qPsPVyB8dxHMdZihxHR+ja7m/a24AwyXDUB31237Xndi+0+y3h2ovRbx0d5Y9hbGWnHJ0Hj7/3O4kpe0b1tPuvsG2QQ0yHUNuEzNlgqreIOUohtDNpYx8+z9FiV/dwMMK+r0HlYGyV1D3GXHtsfP4Pv3KLk9OaKay7g1PbSdbQzm2nkg7NHYRzbTEVH+ubWL42TBPXXstxoF72HBkWCxycc29dHJ7cfGhMowVB7RC2pfqFshGODpXTytpygGR/8fCbwxvX//UNJ+fSteFTP/nUKG8XFJUNvTYvdEmPFjuOgmvhDo7jOI6zNFOOjgj3LO1l2nO11ylOYXJGtEdqfyUM7P4a7rt2Twarl7jQnrDXyMHPXjo93P/GoeGu33lsvJ5yDlQ+0lu5lD2Va0dZQnskl1pbl/ygNB24o3Mzao/YGLrlx0DBTqBcrBEImnQpKFAJmhhTt8lihI3X0jk1nVKSJnfwzU2OqTrWODgKs2nJQwuCXSBxdpAJH1EjrcaE+t4uKGGZkQel4YgsqFxapDkn7ZWL54anP/T06ORcvXh1ePKu37/FwZGs1UsYZdG1jhbCwB0cx3EcZ1WUPLqmo/Y0u7ex74b7tHV07NMOIFm7v4PdR4Xdt2UjWBuCfKSfskjev6Oz+45OzDGYgvEAtJPG1RR2nMTQmLAQVkuoq9vjajQa5DacGioHNRKNOddgITWNFTaSkK4wfqqTpwZC2Ea0HbIpR07OAKQGdugsWGKTIrYQxMJsWrsQ0I86Tzk4MXmgrpQzLLPNi3NNAuuoaHG25+ceuTb87J4/Gw5sHhiunL8yfHz4t0e9Nh1oDElv7Ci4BsLO3XXNHRzHcRxnpdiXERw7dsM+SO1dsSPIBgn3a+2fyHEd29t1zh7K/im9c/u39n5AD2gvlm2x1xwd2bohtj1DaL8UaleLbJQ5bP9yXoPS56JxJGLlt8Taw2LHlmRLHEyR6uuu38lhcEDuYMohnEC1lOgJB7E6QZM0JDaA7UIQDgqhgazBOTfYagax1WknhAjz1iJny61ycm3rBaHO3B/6ZCAqH3TMfQfHfgqUcnYuHL40/OLAv7rh5Jy7Mnzm2c+MaRUPlN/WUTrtUXAtrpw+529RcxzHcXaFpV5GYNMRZu0dey7ZcN/VXo1+6+gI7beSjRmjcnTsD4aSdwx0AektslNiqI4hhJcS0yOkL5RRu6eQXaU6zTkGFvoFamxk9QX9W+NYgLXZapGtV/JTLDFi9Yl+J0eUVJpCQktFQ8KJU0uLnpR3OEVJmlzZuTqk4q1+O3G0eNlwhTFB7WKoazsR7blk+KHPs3df2/kOjtJrwFHG8DrUqcliZUF1kDz5hc7OwR+9ODz94adHJ+fkayeHX7n4xE0Lh/SjlzCVW/o4Cq6FP6LmOI7j7DZLvIwACJPjwp4rW4Bz6whp/wz3Ze3Z6LdoPw/tHHsNpAt/MFTlTKHyS27KMYjZOzBl44b2Si61Rn+Ls9CSVn1RWk9LL0eHcVBqp1N+S9jX0e/kCDthctGkyUUDNITKaoLGmBrQFlW4xkMMJ2YOJWlyZec6fyo+Nvhi+cbCbFo74dWmWgCRaf0ODj8SBRo/pEUWVC4twlaGczk7Z57YGH5x8F8NBw4fGA5fe9/wmz94ZIzXOEaHBj9HxVkZkH5wB8dxHMdZF3q8jMDG2X1ce6zCJEec9m+7/4P2Z/QK7evWhrA2BvlIP6ALu2AVj67lysOc7ZWi1uivTQclaWkLi/pCfRODfp9C40vY8ZCLxkMJ1l6zaOw2P64WDoKw8eaINZwmoW2wkJwGVINpMteSasQYalgG2xyqA0Z6inBBEZqkU5MwNejD8N4OTkweaBfKGZbZ5sW5+orykFYTzy6QnNt+VV4/PPRfDgePHhxOvHpieOTwx8c4jSeQTqW1OiyEu4PjOI7jrBsxR0f7WLi36ai9TzLsuaC9Wvu5wiSjeLv36xyd2l+Rn9vfZRsAeiC0PdbV0Zmy02KoXiXYtswF+VJS+qfy1tiYQuWn3ilnaQr6JBw/tWhsNDk5vQpjKR20KVr0WKM/t6M2tye9FoY5rCxtGGNqwLUM7FCvdIVh4QKmcCun10TnfAcHOAfFp5wp+ykPaaUj5uwoHr794W8Ph+46NNx98DeGh964byw/+omn3Cq/PQpbR3/JgOM4jrOuhC8jsPvX1B7HNXum9kYI913JESbbxp7bPTfci7WXyzaUPQXo1X4s2diHrHJ07O/oxJB9AujOwbZHLmqP3DxA9QTqloPsTfoBchwra9/G2rIE22+1WJuulh7lAPRsfOHrX652cjTwc8hxNKyRW+qYWFr18OhU6SApSZMzCOY6eSqeOAj1q4yaSHbBUpgmCNda8LjWYsI5aZjs9ndwNPmRUbuH/aAya/IrDXWwsqByKF9Q3iofMshTD+Tgu3f/18Oh44eG9z///uHe4ZGbFlSOQouWsIuX38FxHMdx1p1e39HRPqt9kLBwjw33Uc6B63DfxvbQUxnoxFjXnSLiQmPcXmsv13d09Ds6MaZsmRTYIspPtkkOUzZXihano9ZZ2AuODmWcQ+PF9nEp1KPKyQknRA52spVQkodQ2WigXNSQNR50yWDcLQcnzDc2EawMerR4aQHhXAMv9R0cUJ9xrUUkLDPygC4tmuFCqUWWc4054NqWjTj6C9lvfehbw+aJzeH9v9hycg48MqaRPOXS2JAusGPMHRzHcRxnr9D6HR3tv3ZftQam9mArB5K19oHOgbzQEe77sjGsDWL3d9JJfj98R6fF6VB7zTluIfSf+jkX6iVsX8wh2RJy9IItB+1QCu1W/Lha6UDKYWqwEZeLJlhJxwpNstzGh5rOhbk8wnLYzlU5Y3XUIJX8lONGe5OHwiTD5C11cMIxEXN4ILbQKS314QgqlxaGlLMj3Vb2+9f/2bB5csvJ+Yv3Dw+88cAoo/aMHQXX7uA4juM4e42a7+jYI8huCPf70OZQfGgbIAPSi7z2eHSE+3+4lxMfcwhKHB3ZHqTPcQxUB9UtB2unlKC61lKSn+1L0ul6irC9aBv6yNqNMVJ+QI0TGcPaizVMvkLaQiF7FdoSG9Q1tJatpiFL0kh2auLFnBFgsI3HrQEHsQEbi9MiYieHXVSEZHIm4ZkzZ4bz588PD/3+DQcHtNDR7jGHB9BNH1MmtZmVBfpP5VKZYs4O8morlVmL1Evv/mB4/cTrw/ufef9w4n0f3FmQQHW0R+D80qVLK/0dnJf/+T8fHvy3/q3tq/cg/Pjjjw93bpfh4tbm9eI//IfjORz/+Mej6RzHcZzbF/sdncOPvnenIdzzOAr2TfZIuzcDYTaN9mH2XusYWBuDtOF+joz2etkoyp80McfGXrPns9fr0bVTp06NaVOgE1SmXGwdcqE+cw6AxbZbiZ3ZYiO32sWhg1pKa/4itLXRm8vkK6QtGpgl5AwyO+ChZJBZNClLBh3IELcNmEONgzMlOzeYpuKJg1B/bGCEk8XKoEeLlCYk5/pER3dwHvn0EzvxYBcHpZHDY8vMd4KQ1YLCEVmwi5rOSWsXH1s24rTwShf863/jxeGtjZeGD/3y48PdLx66KQ5s/mI37uD87O/9vVscljAMh+eFr3xlOPEf/AfDw5/73HD+mWfG8PN//ufDh/+j/2g8dxzHcRxofXTN7rkc7f5v9+Zw77d7s87B7s8cQfaAtT2sbSLHhjQgXS9868eLPbpWKg+hfZNDrdEfs91yIJ36RG2bA2kEadXPU9AWKWz/h6ifS0jpipH1uFpLA09hB7WwjZuDnZQ11DZwSZ6STQ0S1YG2SGEXDgvtRfrQudPCpP6K9WGNg5N6TbTqAOShAR9b0JQWOY5A+8hp0ZjQudWtNreyoPx+cdePhzfueWN44uknhiN33b3T9kovpGe3HlHjDs2PtzajJ7by5a4NDk3ovHznt35reOTv/t1b7tzgDIE7Oo7jOI4l52UEqSNwLlsltAO0F2vftTaAlbW6JK+9Hx2hXaD9W+nQA6HNstR3dLCPVG7yy3UGKJ9trxzUhqQrQW1Tgs2jJM9YfWhL9XuMqTbT+Ii1ba6zV+uHzD6uRgFq3jY2hzV6W2gpG5MAStKq3DmTQB2CLJ0cI1w0QjT5Y6QGbc1kEOhTep2/eOjN4e2fnh0fUVNd7OIRLia0EYTlY2GzsqBFAiRP+9oJgQzyLEKSA8nSRkrzgyf+crhyxy9HJ+fOy3fu1MEegfPdfk207tTgyHCUw2PjPvmnfzpeO47jOE4O9tE1Xi8Nsb2Qo9A1+672VNknAhl9wMiebI1XjpLRfmz3eWSwtWQfgHRLL1hZa9jK5jr7x98b7vi1+4cH7r5vvA6x5c2F/AXp7fUU1BPUBjlYG8rWaw5sK7WHbK0SSpy+GK02e2v+ENaf6zlmH1erGTAwN0hSA0mDJgc5AKTJHSiCQUb6kluNJZ2c40DNdTrxqTKm4sIyxrxfK2PLQJvoXGlef+6l8TXRjz35+JiWeKFJbesQlkuPqEG4oNnFS+eklRzXtmzEKR06rD7OkX/+3PeG8w+fH5748Q0nx8arHLAuLxngrsyb/+Af3HLHJnZnx3Ecx3FyaH10TXu94tiHdUdHe7bigDRg9+zwHOw+LDvB2iTWZgFrE5AWG4BH104evXO462O37t2hLTVnZ4WUykPKHpui1mEpSRc6AbpbRdo56LMQ2kX9EoM2mML2o0XhpYR6YiSdHAYczFUqhjzVFDU6Y1g9c40bQqPaCVrKXONKf4jaVRMXGYVZFK/6WSdOC0Y4UHWnQ5+IgBaLEgdHC1nJI2qqK9fEM/lieVEWm45rhVtnJ7WIShbU54qHM6fODKcfOj0M//T/sx1yMxcfOjB8/M7/5Y6D89NnPzB85wfD8B//4xvxf/K/GoZ/+7M3zleBvZvjTo7jOI7Ti5ijY/dszu0ea9GeLvtEey9HULrQftC51cs5eqRDNgF7OI4BxrjsF7DlQSeEtkyPR9dCJ0DIGSA/a3sJ6hiiOqu9YshmEbZ9prDtUUJML7rm8oNUPdSHtcTSz/kMIaGOsF0tycfVlKEST3VcyFSGMNXItZ0JOR0nwjLM1S9sh7CONv1Um9l0lCE1WKbyi7VfKqwWHlF76Vs/G+79d35zvD5+5Ohw/+nrO4tEuGjg0ADlJRwoj8ovWdBiBYQjp7Jyrrs1yDMOVXcrwzk6NNiV5yv3vzI6Ob/+p//T4eqpg8PmmXfGI/zxn/0Hw/uuPT+8//zfHh2c/8c/vvEp0Of//fEw/OzZYXR44H/xP75xXBI5ODymZr+fA3qrWszJIQ4k6ziO4zgxwkfXZCfIZrB2QmxvDfdfhbG32w8mCZOM1QNT+z+oTEKOj3VsdH320QPDlZObw7nvPjdc+v6Lw8f/5mduqkMJYb4WdKbiY7YdqM3A2mwilk5yYZxNH0tn87LE8g2ZqlttW8JUe4pU3qk2jRHWPeaIio2nnnpq9sUDU+RUKsRWsqRiFjswVMFcT7AmbWogCjuwpgaQkEzLgAKbT5hvrBwKox4aKLZuCrvw3z43XH3oyBh++b4jw7v/7QvD66+/Pl4f+9jDw/1vHLoR/+Sp4Z63trzwLR3hrWcgXHVUfTnGHldTWUN5Fke7MKZ0cjzz4JnhF/f/YvitH/7WGA/EPXfhC8M/+9efHj75+m/t3MH5vf/NMLz7X2wLbXN6y3/4lS8Owy/+r8Pw6II+RHgHJ7xzE76YwIIshC8kcBzHcZyQHi8jANkI7MnhnRdkbDw2lbUxQp1gP8gM7YfXj14bDp+7Orz7nV8OZ+++YZ/h1Nxzzz3D5Q8cHU596JHhzM9fGB9bu+exh8b4GOgWKkMutqyl5OaTKpNsqBRq25A5m1btkdJvHYZQx1zaENv2YpV9ABtf+PqXb3JybAVBjy6F4SLWkClZgcGqwd2CnUClqKFbGxDCDsvtRMnFBkxqAIONC+tudYUD0l5zbsvJuW3LV954dTzy5T61kcr67vfPDBcvXhwu/OaJ8XE2Fh4cH24dH3n18tYiemy49skHb7rbAzFHhjyRIdzewdECKjlARuVUG3AUxL++8eLwiwe2nJwf/dZOXi/9/H84/JNXf2f4zQt/b/j//WefG7+D8/VvDMMnP7raR9MssTenpV4hbeViYY7jOI4zRexlBEJ7q9C13XOxDdj/tedqf4Vw77ZpgXOltfYAenFm7vyLi8PFty+N3/8F2RSAE4NNAThoVufrT784ftgaOjmyYyBm/+QguyRXHmSXgC3DFGqrENWzlphOSOUXI1Z3W8c5Yr6AxollyhfI1QExPbc4OWHHlDSIaO0cMZdvbtnCjiod7KA09vsuImzYKf3qMOs8xjpmSkdskGlCWsL2mboO+4wf/YR7nnx4LENs8to0vKnsyl/cuNPDpy4sUsCnLhu/88hw1w/fHA7/6tb5r923s7hRd84pg9WlawaxZMM8JRMeLx27NLz8/peHD/70g6Pcayf+6viY2ofe/ufDP/9PH995ycDG31j9929E6k5M7O6NnBqh38zxR9Ucx3GcElrv6ADX1ibQ3gyS17lsBmTZz9/96avD5itXhl9s3ni8PeXMnLxw82/cSafy1TVODoQ/Eqr4EFu+XGI2WAprJ4XGecqQT9l6MeNeoMvmVYLtrxrCNlQftVDaJ6l+jPXVTS8eiAnUNiSkOinlhYXYQREbMHRWzOkIiQ2u0nqVDIypidRjQEBMf2zwhXI2jHPawE4ytQtvVQN9QkI46Wz5kSNc56Br5cFbzGLOT/jI28M/uDyOifAWOChf5WfztUjO1u///Oz/6RYHB3bTyanBv4fjOI7jtDJ1RyfE7qnag2UvcA3ab0F3dPjezOZrV8a9P9z3jzz/1nDfxx4dr1POTIjKoHPZG6GdEhLabVZPDpJX+VrIqVsu1lYrRW2SYzuHyO62vsKUMxYjtP9j9vkcqbqH/Q03vXgglpkSxRygOWIZQk2n9hhkITVliKUJ2yZn8E21K4Nm6jFB3d2wxPQRZnWEOq0elVl6ph5Xs/3KdehwoEdhpAn7jnj7yJu+7yPHhzDu/Nz1O4+N8srP6pHemH4g/M9/+NXhjdd+couDAzyuBrEXDPC9nCW/j+M4juM4u4V1dA4/erJobwXigA8xuTPzy189OO7jfFcGh4YnOIDfs+HuDDLWoVJ6i/Ky+Yf2BigOZKeknBxrP8U+GJ8ysJWvtZnmiNlmc5QY7BbbDjmk+rKGknxDwnLTvqWk2izWT1m/kzNXodJCpgoYMjWwYgM2B94EptcVlqSdcjrCiWInR4opGeKm2j0WlwqrJedxNVAeYd5KYyG9wpC35eP6yulzo+PD3R2ezY3d9bn7zUO3LMri/Fu/Mfz0tb85DAeObo3sQ8Nfvnl9+Ff/9yH6Ozh6wUD44gEoucvz1tZmcWD7HC4988x43NjYGDa2jm/+2Z/txHP9zn/2n43HA1vxl955Zzi4dbz+d/7OcPfHPz68sxX+gH/PxnEcx1mYqUfXhPZp7c9XHzg8vPr90zvOjO7MHD9+fLjzzhv2gfZnu8dzbrHxHLEXsCt0tOkkg72GrSVbBDmcnM2XLt/yuFouYbksyrcE0uTYthbZU6EtOOdYhXdE5pDtW2s7QyxtaP/OkWP/q01SlPRN8hXSYsq4F0tUEnpWVJBmCWw5css1JUdcqo1i7RebKKGcZDRANUnswFV/8xs5vESAH9siHl2U1bYfum0fkS6Um6ofSDbUbbl06VLU+eHTIhZXOPfQvz/8s+99amuFfXBL+YmtkX1w+E/+e1eGz//3b3UidZdGd3N4AcGHb3yFZ/h//uNh+Pi7zw+/+9GfD5f+/M+Hw1tOyDhB3n13PF7aclJwTK5cvz4cPnDDfdEE4ojzwkzhnL9DW9c4NVtez43jFqTl/I6t9Ne29KLnra2wd7fO39n6u7Dl/Nz5+c8Pmx/72Oj4HHv8cX9MzXEcx+lK7NE19ltgzz1//vzOW1V1d4ZHzbgzYz9sjO3jNgw4l80wJYsdgYyOEMqhB5v0wvdvPMYd+1HQENk51kaaQnnPyUsOVIcSUmlU557Ydq4lTJ/bniLH/u/p4N3yCumw8q0NYlFj5FRyjtgAnGsYYY36XOTI6YeoQuyPSuU4hnMyxENsAMXaL9YeYZidjGD7Vuc66q0lD1/bchi2SfXZlGND3jbfmExIKKNrC3H2+z7f/8Vnhp+/+28Mw5FHtiq6tRgfuGNrdG8O7xveGOP/wy2v4pXrN4b6//rK50cn4/qWQ/EPD/5vh//50Rt3T566dnr46LWfD5+9/B+PDgrxclaubjkhgrs043H8f4PYueRgJ2z7CHJycJpwhjjecr4lh+OEruuf+9zAzflzW2X5r0YNjuM4jtPGP/gH/2B0YnBo5MzYuzNygLTP62jDdG5JyXKUbaBjTEYfvIKVkwxPnGCn8Fh9DqTJtT1lt8h+SmFtuNK7K5CyBe2PloboN4NK84Ic+1f2bkhum0whe7EFjYEQwkM2PvdHX73JybHGOuQY7Lmo4Xo4ORDqUQfkkGqkFLHG60Wqs1Llm+pgG851rH00QNV+Nlxh+kIfn5Aw2e775tkdXcgI8lM+0sPkoa+RUzyEsjq3+kB1sOlA1xbFvfSjXxn+ybOPbgVs6brywlZl7xv++r91cHj4/L8Yb7G//2dnRgeDey8cdX7otddGJ4Jz/g6/+OJ4zc+H6sioHeNxNsyROD2WZnWM8dvXNm68q8Mf4VtHnCjdKSLspom4xWtXrw7XH3xwvMPz2smTwysfvHeUeXYrTQ582gbUvxZ0tKQP6a3P0qO+pSxZnxLWpRxTeBnz2Y1yLJknuqGX/h5lrdFRWo/cPObkUvEl4WGYveYRNJya2FvKwv1b5yKM19HaBGDjwMrbp0ggZjsAchj36MYmffWFV8YnTqZ+J0eE9o8tWwqVLxcrr7IvgdqmpGwiJ53aKIZsxFpIX+OcWVIOXswxvOlOTqzitQ2ZwhrSLYQDNkbKMcvxZEOm0oQNy49ZITflifMbMqBf8g2Zci5jHRyTJwzURmGb2X7QuWRSLx6wUEe1i9VpsTqR0TnYRWBqjIX523SW519+aPgnTx8fhne2yrDlCPyt39wcPvC+v9iOrWfjwoUbx+2/g2++ecN5IZDjVl5HtpwlhfF3Zfu7OnJwuCuzc719ftfBg8PFd94ZuEd06JFHxuPFe+4ZLmw/gndh+1M0x3Ecx1mKZ599dnjwwQdveTmA3XtT5zHsHo2M9v7QFgn3cisL1sYQpFG+qd/JSWFtnrkP7ms+4Le22ZT9Z0nZizG70NLrTg7Xuagf1I8l2D5PjZtcpnSEY+qmOzmlxnYNNGgPJwfm9NiJEVLa0CWNuhTKP1WWMDwmZ8Ni5xxpU/tqRvreTig5T4A82HzsQmYXLAjliacfbXrJiDBO16EcPP/S3cOliy8Mpz7+4HDi6NtjmE0D4TWkwiAMh6k4cYvOSxd3HCXgeOiVK8M7d901qccSK2cOteksPXSInPZroWdZc1h1finWpRwpvHx57Kfx21t3D301OkgDuely85iTm4pPxcXCwzB7/bOXTg+/cvVk8qUBVjYMt+eSAbu3x+QwsmVfgrUDrC4rD9YW0XdysFOm7D0RlnGOmDxhq2CunKV1EWE6tX8utfa7fIha58wypSN0Fru8Xc2S02C1jWTRgFZ+JU5Y6MnmEEuT8tRL7+TEiOmQExrr4JgzGoaF19Jj6yYHxr6akTg7sTUe0KV+IK11YMM0QHgYr3OQfGq8aSyGRxvH93S49f7op379pnBLbhikwmEqDubiRa6cKJUH0kBpOktNvlP01mfpUd8SlqxLCetSjhjrXDZYh/KtugxL59dTP7qgRV9teUrT5crPyU3Fp+Ji4XNhp7/9k/GFAvxuDShcMhwh1CEUD5K3e7u1FSCUF7JPrPMjWyFWDmunzNmApXZfzKaCKbuOx/pf/ez921d5zNmLqTs6tc5CbjsgF2L7s5aU/W/HxxwaDzl0ebuaJdYwIT2cHLB6ShoIShoJYvKacKtEEz1W9jA8VWaFxc51DN8/T1tr8jIpQQOdOItd3OT8CNtP5CVsmhArZ7F1kwxvhnn55Zd3nBxQnUR4DbEwSIXDVBzMxYtcOVEqL2rTWXroEOiCXvpCepY1h1XnF2MdyjDFOpdvXfoPVlWOpfPr2aY9ylpbntJ0ufJzclPxqbhY+FwYTk74uBoQb+U4hzA8RHFhWoxyfZCKbSD7kr1fugXpFCcbFEcAR0IfzvLECa+Q5qcucpgqc4xQPizjKkiVt7QuIjed7LuQVvs9lT7Xx4ASB2/jC1//8qST01qhGOis8UAtud5oDKU995H8MszdebEsdScH8OqXvpODjH1cLVyAmCBch84MKD3Qz5K1hOlIYwnlNSHDyRnKwbm7rg0vvn5m+PBDN35ROUwDuWGQCoepOJEjA7lygCzkyovadJaScubQW59lSd0xVp1fjHUoQwov2zT7abz21t2qj/RQo6Mk79x8cuSm8k3F5YaH1+GdHCBecqn0HMHKsP+zv4fHmC6dyw6I2RFKa1E+2CmX7zsy3PfIA9sxaUptRpXB2lRTNh0scScnRW5e4Z2gHrZzbVro4VOU6Jh1cqgQaMD1QMZvK3aylBJOmt0iVf6puqXiwvCYnA3j3Doc9LEGT+w7OfZOjh0PoTNj85ScJoYcGuWVSgc2rUXyYOvCuR5Xe+j3PzqGQzghUmM6lBOpcMiZH1PpLblyolRekI62mirzHLV5x6ANNRaXoGdZ5+jRtq2ssr4l5MyV3WIdyrbKfluyvr11t+ojfe36Ujqfc/twTu9cmVPpU20VliuUe+7pZ4aH7zk1/iio9lKOIYQD6awOnds00qFyIoMNIEOZMNUDlDaWjqM+ENadHLDfyQlRmSzSm0urvOq0m4TlL61TSG16+hBy58gUJTq6P66WwnqpNd5uCN4pZSu5GyNq0i51JyfVrlPt3vNOjgaKBo0Whrnv5HBt5eXZk4cWMunUQiYddoJQHi1i4aJk8wSli00yyepxtQ9+cPvXPR3HcRzHSRK+XY39NbUnh3u53Y9JA9rTtfeD0oDVzxGbRLYDyFYBZGxakM7wsXpLaDuV3oUI7aUcQtss5+7M0ndyQkps2ZAWu1tYJ7WWmA2covuLB1KEg3RdKKlbblu0ymlxSHmqsTgtRloYIJQLZRRvwxWmOzn2d3Jq7+RIPxPZLl7Kayo9WB0WyVv0uNpjTz4+XsfaJRYGKk9ISl6k0gnSU9YpGTGnK6RUXqjNU3XKoTbvGCVtVMqSumP0bJcadjv/FHPzaLfY7XLtxvhsnfspeuru0S61fVuarkR+bn7O1TuVVypdTD4sw0v/9Ae3PK4mtDerX60+nRMvrDwoX2T1ASjnhGu8gHTE8uMYu5PT8js5c5TIS9bWO5eaNJCbTu26TtTU11LSZrf8GGhIrZc5xTrdyeE8hxKvPkd2SkaLAMQmWGyRjMmHYeG11aNzyegTEvs7OWAHFnokr7akXlrIQp0gXejhnPiwPlYeNKBT5QDJ5DyuBrEw8lWZQpBHf6w/IKYvJEcG5vIKmSr3FLXpLKVlnSO3jWpYUnfIKvOKsdv5x9C87jVWerHb5eo9h6ZYMq+eunusTbX9Wpp3iXxOmeZkUnM7lS7WL6GO8HE14lQv0nK0KIwjSDdpONdReSu9TWflsINkO4DsI4iVQ/m2/E7OHOQLKscUsuNK7jCIHHsxRm5eoe2+DndyWu3/Eh07PwaqQRNiB3IvWnVqcui8lJq0JWnCiTTlyGhSh0wN/NjgjukLdYQy0mPDScORT0hGmSceGY8aVBrkoLagvhbbt8io7az+mBOkBUyEY0T5WXnJKG3O29UgNQanwiEWB6l0lhwZUSILpfKiNp2lhw7RU1fIkrpDVplXjN3OP8U6lut26qsl8+qpG13Qoq+2PDV55+aVIzcnk4ovCQ/DYm9XC9NoL7d7uvRwBKXhWns78tggdu9XuJwgpQHp42jzREf4VMmbP35hPMpOmfrQOmYjTVEqDyVODvqhxPGy1KajTkCb5qI0oL6ppTU95OjQeNq5k5MaHKGh3IMab9fSOjigNG3JwAhl7QARc500FR+LywmbutY5Rzhz5sx4PHXq1E642kv1sQtWzp0c6Qar0/YFsql2s+lFWH7u5PC42iOffmIMh9gYTo3rVLjqkxq3aoepBXFOhyVHn6VUXqhMtH/tHK/NOwV9AL30WVL925se7drCkm1Yy6ravoTdLlPrXpgL9WSNXCKv3mONNmmZNy11Lc27ZPzk9PVc/ikdWm/CuNjaHAt74Vs/Tv4YqEXh2nepO7o4gs45QqjLprdpqS9tSZlwZPRIPOEqr+StTmungMqVQmlzKJEVJWmoD6itdJ2L9pdSavLTeIyNnVJy5sEcOTp0B2tlLx6w9KikGrv1cbVclnrxQErflI7YrbqYvlBHKBPenaE9lMbeySFeiy9okggmNmjhQU4y6KKvxvOtfKU/XLhAC0SoL7Zo2HSgNHwnh8fV/MUDjuM4jjMPLx4Ifww03GOn9mqhvZpwbDxrP8rGwA5BD3aA7AquQ51Wl8qDHtmP2DXhnZwpSu2+EptPlDxGJXLsxRg1eUFJvWgzy15ycsTKXjxg6aVTk2G/YNtkqo1ScWF4TM6Gxc51jP0YqAaVdVrswqHFi8UISCOdFuUJyKY+kZAujharL9SvFw/M3clJTdapSTw3wXMXgFh5YqAv9uncFLm6Q0gHLYtXbd4xVHfGRQ99lh51zaVnm5Sym3nHyJ0fq6JmfvVilXkvOd5lpPaa863jo7auNf2RW/dc3ehjP0uVfSo+Nddj7RFrZ+7k1LxCmqNFYTpSb6UJ920LZVEd7IehGP4yylU3tTus+sdA54i12V4mVvfSNglpTQ8lOm77Fw/kUuL95rRZTJ/1mlOLFjDJwwUzJh+GhdfSYxc9ydjfyYGpxYprFh10AOmBazk/oMVL8ei06axekO7YYEaHzU/l04sH5r6TA6XhMBUHxMOUDMzpsZTIQqm8pSUt5NY/l9bypOhdzimWqkMOu5l3yDqVBW6Hflkyn566e+iq1UE6KElbkleO7JzMXBlT6WPhsbDwx0CJ1x4bHkE6VC4hvYRrbycdcJ6yB7BJ5LwgF9Mf6oZV/xjoHNRhP93JCWmxu0UP+79ExyJ3cjSoU8i4bUGTbS6vGDVpc9KknIkYcxNuSkfMyYnpC3WEMlNOzsvnX7shE7x4AOwk4Zy0ahfruNgFCrRoKR5IZ9NbFC5ZEeq1hK+QBpuXJTUOp8ZnSpcg3i7CKUrmQOl8yS1DjNK8YvTQIdDFuEm1dws9yznFqvIJaRkHSzA3d1bNbvYLLN0OS/Z/zzr0KGdLeUrXmJK8cmXnxuKUnqm4mN6YfPgKae3VIbIFSYueVL2Iw56Yc1xAOoW1Q2RjjOHbRrm1RXhcjVdI81MXc5Q6OaXyELPN5ojZeuQ9R+36RZ0g1XdTtKQVqXJLdw4aSzks8p2cuQ6q7ZyQFj2laXM6VzI5HTAnMxUfi8sJm7rWuY68mhH0hT6waYG2UJ21EDBe8PLDx9iAMUTYeL6Vlj6weXK0TOWnc/WHdMVeIQ2x/p7q06nxobxi6QC91GVufM3psZTIiqk6TJFb/ilqypuiR3lS9CznFLV90crUGF8161aWpcbUHKsaC0vl07Mfe/RDS3lK539JeXNlc8o/1Zep9CXheoV07p0cQf2Q5Sh0zVEoLXaC7EPdySGMuxj2ro7sTiCd1Wfz4sUDvEKan7rIISzXFCWyolca1X2K2vmtPszJI0brupJKX+JjlDiT/rhaJiW3+HLabE7flI5Y+8X0hTpSn4jY9lCa2CukNaisowLaKOziI+zkRd4OcCabzTN0jksWVFFyJ2dqsk9NZNU3tUiglzLNLQRzeixTZU0xVYcpcss/RQ8dltq6zFHSBy2sKp+QmnGzFF6W1eW7VD7o7T2vW+aFylOjo6aNStLkys6tbXN6UulT6WLyupOT+50cgW7ysXnISdHerjjJcbR52LykX+FWv4xgDFx7Jwf8xQP51NRLtNjdorbclhIdO7+T04NwAqTQAG6lRU9N2tw0Jbrt4mCZWvhicbEFLZQLZRRvwxVmv5PD4iLPmYloJ4kd9LFzJi9HQL/yAtrJQpvF2k7pVG6dh+UmXcmdHEiFW90xUuksOTLkQ53n5ESOTkupfgt50aapNsihtLxT9ChPjJY2KmFuTC1Fzz5oYbfqH2M32mSvj7Pe5W+dzypPjY6aNipJkyubIzc1VqfSp+Ji+kru5IRHUD/Yo+AaNHaU1t6xwZawxr49D+0N+yn+he8/Px5zfgxUZSW/HErlIda20pNCbVZKbTrYrbQwl574nnS9k8MAzKHmucWQmuclRU1aTcacW2o5stbwjzE1waYmkpUPw8Jrq0fnkrFvVyNMAzMcgAqzgxb90kMbx25PA22gT3sIU7sprUjlDcpXcbG3q0FqzKXC58ZITh+jmzadkiEf2j53PuTka5H+uXLE0BgtmSchPXSIlrrMkdNXrcyNqaUoHTNLsVv1D9nNfoAl89Ucad1fYzBHWG97zeXWPmhpz9S6n6K0XXPXk7lyzLXTVBukdMfCS96uZuO1/2rf5gic270dKCthOC2qk9Ym0NpOnNVtyxHmG74Fdg7lkQPlAJUvh5j+uTGgNihdn0vHsKjND3rM27ly5/gaRXdy/HG1PEpu8eW02Zy+KR2x9ovpC3WEMtJj20NpYo+rKU+rh3MGfbhQ6VyLksUuXsjaxQ3QZXWGKE7yoIUv9nY1sAujJRUOU3EwFw85MpArByWyoiaNaEkLpIcWHZbW8qRYSq+ld1vksoq6zbEOZYDdKMeq8lwqn556e+hq0VGTtiRNrmyO3JzMVHwqLhY+9XY1EduP7V4cyoPNi3Nhw8K8sD+sIY5hPYYHdgv442rldnRNvUSL3S1qy20p0dH1cbW9ApMqtQBMkZumh1xNXBgek7NhsXMd+YSE98/f9TuPjfFyRLTosCAxMUGD3k4Ae24nFRNai+XcwsjRYsNUbqE0ODncyXng925+XC21kEwtMHOLT87ilCMDuXIgx7JkoalJIygb/VSzKIoeOkRLXaZYSq+FecEnWa2LfCk9NpZW7Dqwm+xGW6wiz6Xat6feHnOspTw1aUvSIMteOdfXOXLITLXVVLlScSkj9ZU/+cFNd3L0oaPdi6f2ZHtknadufFpPXna/J19bNrvvxc7B2hucyxaBdfydnBJ5qEkDLeluJ27LOzlaPDSJctBkzbnFlyM7JzMVH7vdF5MPw8Jr6bGLiGRiv5MTLnwQmzA2buoODef0n8YY5ZhCaaUvVg4eV+NOzgc/+MHx2nEcx3GcNM8+++xNd3IgZkBr754C+wI7Qnu73e/t/s05dsWcLWH3eaWxTs66/U5O6SNkNflATV4gO6vE0RctdrfoYf+X6PDH1TKZ+tQkJKfN5vRN6Yi1X0xfqCOUkR7bHkqT+7iaTatz0mtBKV3UIFzYpkAnSO8bx94Zzvz8hVvu5KTae24szI1V4llopvo6dw4hR31SY8JCubXIzem15JYlpDY/Sw8dlpL2KiGnT1tZRR6WuXG+CubWvFWw6jJozLfud1NQJ9a/3nn01Ntj7qs8NTpq6lLad7ljK7csOXtPKj61zqfKyJ2cUx96ZLj70sFx75UTob0b7F4utE/bY4j2cem19oBsBDlGKrMtf1hmW29/XK0sL6ipl+ixj9SW21KiY98/rpYylDUpS8hN00OuJi4Mj8nZsNi5jnpcjdvALEIsyuHCx8TcDD4d0QSwk8FOKk1oULzC0AVa+JRPiC1riO7khN/JAVtfSyocpuJAZZiSgTk9IldOlMpDTRrRkhZIDy06LK3lSbGUXssq8rCsOr8Yu12G3ch/6TzRD73z6Km3h64WHTVpS9Mg31N2TmYqvjQu/E6OBVnS6NxiHRUdwzs54X4fswesYwPISpdsDK5Btghh1k7JYa5NQ5aWh5o0UJsOlJbjfmff38lBLiQ0zHOwk26OHNk5mal4fSJmicmHYeG19Nj2kIy9DUx8zMkRUxNGk9DKhJ/mhLoJm0IyVhYd6Nd3csK3q031+VRbz40VtU3YHyFTeVjm8gsplYeaNKIlreihQ6Arp/1L6VnGFLljoherzi/kdst/FfktlQd7A2tyD709dLXoqElb2q65eeTqRd/UmjalZ2rtSqUL365GXQA9yOuYIpTTUXs717IBwNoDIQoPZZW/dFIHXiHtj6uVYfMrtev34p2cA9vHfQudeMvf9mCKxqX+tidYNC74G+W2B1Dyb0bfGJfQMcaF4RF947XVEcjsnJv2GI9b1ywc4/lWmG5rcuRvnCBbfwx0FgwWIM6ZcJwz+HSuBYVFSbJaALXAKYzFCzjG/iRDOi2aHPkD6SuFskhHCG0xpZf4sfxbC+gUU3lY1Bdz+kSpPCgNi1UpLWlFTZlToIv2bylPjJ5lTMGYYDyvitwxuBS7nT+sMv/a9SgXxiZ5aKz2grnEnOqhlzK26mrRUZO2tF1L8kDv3BiUvimW6HcLZeRP5dXR7sf2D3SUPFAPrpn7nMfsAWwFbAadY0tIlvPRodlKL/sDRjtkyzaxdsrs33Z7ReNif1t5Fslv/ZXK8zem2SpbLG7qb0wXCZ/9M/W6Hdj44le/NHknh8HKgOtJL50temrS5qbpIVcTF4bba2tgaJCzKOlTFiBcYakXDwjSsAixIOsc5OW3PK6WQoulymtRXVOvkIaaNoWpONFLRpTIQqk8kAZK00FLWtFDh6WmDeZYQqeldxvMsXR9ptjNvGGV+e/VcdOz3D10teioTVuaLle+l1xLfCou9grpGLIdpsBgD/d2mLIHMLhDWfJCl2yM0G6B0E6ZQnaD9MTsiJDcPhOl8lCTBmrTwW6lhdb0UKJj4/N/+JVJJ8cOtl7U3mazhMZ1CTVpS9ohR3ZOZio+1n4xeRumOgNhYBeL0OEJf2QrlLUDTAOO4xSSUVrO0RnmLSgnYeExjAOVKfXiAUjd4sQho01Ttz9zbtHaxTpFya1eNgLqlyMLpfKCNmEs1XyqQ51pf326VkMPHaKnLtHj9vwcLX1QyhJtlIs1blbNqvPu8UjGFOhnzexZn9o1JEYPXS06SMueUNoHpeOkRD6nz3LqPJfn1NhLxU29eID1IucYQri1FcK9P0XMTuAcfSB7AUqcHLBpp+wziNlUc+y1x9VKabG7RQ/7v0SHv10tk5LFLKfN5vRN6Yi1X0xfqCOUkR7bHkrT8na18FzyTCrCtFhNLZCgxS12TFHz4gGYioO5eOglI0pkoVRe1KaDlrSihw7RU5dAJ/TWK5bWH7JEG+WyW3mvOt+l81tCf0+d6IIWfS06atOWtkGJfK7snFxLfCpu6sUDFtJKR3gU7OlyJrTHg4xj2QDYD9ZGSZ2n7Bbwt6uV29E19RKlbRijttyWEh0bX/j6lyedHOv59qKHThnGmkAl1KSNpUl5wprEU57ynEc8pSPmxcb0hTpCGemx4Urz8vnXhiOvXh7u+tgHbpIF5KHUybGLGiheYdI7B2WljDoCY4qFNvXiAVDdYm06FQdz8UAbMa6nZKgjZc35FKJEFiQ/V4YQ0oVjJ5faPC09dIieuiz0P9S0UQ4546sXq8zLslv5akzkzqMWVjFOoKf+nu3Ta/7lrKUpatLWtEFJPnb/nGJObq7/p+YYdUyt860vHrCQN+WwezsoLGYPzDk5tty2jfgw1topU0zVP0apPOT2s2WqzyyUx6J5Vgp1gtz+tLSkFbXltpTomHVyelQqpEcloUVPadpYOygsJPVpiWVOZio+FpcTNnWtcx1ff/rF4epDR4YH7r7vpnid55LSH4bRF6n2FLR9KKMw6Zp6XM0unCFzn27kfIKhxXhKBigH5c75JGWuXCG1n7SU5mPJrfcUPXSInroE7aoNrPQTtxxq+62GJdonh5Yx1sIq8+UTRtayJfLSGGz9FDSkZD2ao4euFh21fV3abyX55MrmyM3JTMVPrTGxx9VYIyzaa3Wcwu7t4X5vzznmoHRg9YR2yhw27RwlsmLJNLS7pdb+Vd+F+nJptd972P8lOvxxtUxKFrWcNpvTN6Uj1n4xfaGOUEZ6bHsoTa/H1dDFkQmlT3g0uZhsis9Bi4E9gj2/dOnS8PLLLw8f/OAHx2vHcRzHcdI8++yzw4MPPjgcO/beXYupvZZjCjlBdu+HMEz2AGHYKNZesecpuwX8cbVyO7qmXqK0DWPUlttSosOdnExKBkZOm83pm9IRa7+YvlBHKCM9tj2UZonv5CAv/RDmGd6OTcFiqYVUCyiePQvv1J2cuTafG5dTfSJyZICyUH7qP0fNeM0th4V8Wu5WkCf9kWrfHHroED11ibkx1EJr+5dQMz5aWbLtUpTMs1Z67Gsplmi7njp76GrRUTt3asZHybqSW6ccuZyyTo3BqTxyXzyQwxKPq0kebB3dySlfb2rqJWpskZAe62SJjo2nnnpq0slxbj9wFsJfEg4/vbHXOefAIqnbjCyaqbAStAArr6nv5Mw9Y8vkRV/q2dicZ3RLnuNlU6bec8/iwlzZQiiH2jU3DZSUP0ZpOWP00CF66hJL6BTohtr2z6W1n2vYz3kumQ+6mculz/pP0VNnD12tOlhLWf9L279kDYbSfpbjNUdO+efybomPfScHWQtrXhg2BfLag5ROOrRfp+wFew6pONkpp06dGq8dJ8Tv5GRS4v3mtNmcvikdsfaL6Qt1hDLSY9uDNCxEvJrR/pKwXaytkWcXztS5DDe7SMYWwFy0yHEEez71djWwC2TIVJzoJSOWkhU1aaA2HbSkFT10iJ66xBI6xZK6LavKR6w6P1hFnuQBS+SzhO6eOnvoatVB+pq0NelK0uTK5tZ/Tl9LfOztasgqTW4ZIba3h2GyH6wtkXMO1ha58P3nRzvF7+TkU1MvsSfv5LiTk0fJwMhpszl9Uzpi7RfTF+oIZaQndHJIsx8fV5vr97l4mOoXkaNH5OgTtCN1ztEr0E8bpcZZitp0QP21EeXUK0YPHaKnLlHTF7mUjJ8WSsZeD8L1Z2lWlR9rI8bbEvm0zMMUvcrba161lKe2j2vSlaRBlj0px87J0ZuzJszpmZrv/rjareT0S4gtWy5T/TJFTV5QUy/RY2+qLbelRMfGv/t/+J9MOjl3/sXF4eq9h4crJ/tthHd/6/XhjU/fs31Vx+FzV4fN164MF3+1/C0NNWlL0uS02Zy+KR2x9ovpC3WEMtJjw5Xm/OW3hrf/8rXh5Cceu0kWrHzpufRDKozzqaNFYZuvbMU/cHi4+PbWBHzr4k65Q6bGni1nCsoKUzJAPpeeuGt23uTkaQn7NIfcsoTU5CVy22kKdNCvrWsF9ChPSEv7zLGkblE69lrZj/ktmccSunvOA9aVcc1t0NVSHtrn2I8vVK0PU/tAjNK8Svoupyw5+ubWjKl8zn33ueHk0a29+I5j45rLfkF+FnQTlnukrCoTKMzWxZY5dR7W3dbj8itv3mSnTFHSJ1AqD6XjCub6LUVNXlBTL9GSVtSW21KiY+Ov/sG/N+nkHHn+reHyB8o9vil66WzRU5q2RD5Hdk5mKj4WlxM2da1zHS99/8Xh2MdufB8HYrIiFafz3PiUPKTkbJw95xhjKg7m4qGXjCiRhVJ5qEkDtemgJa3ooUP01CWW0CmW1C1WkYdYZV6w19tvCd29dPbQ06qjNn1NutI0ufI95eZkpuKJA+LD86mw2BFKw3LPwV6Hdsocoa4pSmTFqtLAqtOJ3U4PJTr8cbVMSm7x5bTZnL4pHbH2i+kLdYQy0mPbQ2nW4XE1+zyuJXYLPXwGGL0x5sbeXHzu2JnrX8tcnpbc/C01aaA2nShpgxQ9dIipOVVLSd+V0Nr2uSxV/hg9+zKHVdRtiTElepe/55hah7ld2/Y16UrT5PZdbhvk5D+X51Q8+oH9VHspcM7jiIyb2D5MmVL7NuNM5QaF2TrbeqXOwzay9fDH1crygpZ512MNqS23pUTHge2j46wtLJpyXgRh+jLkXofvErF4OI6zt2ANKjVOdguM0dBQdfrDWp7zBX3HcZbHnRxn7Yg5Nb1odSgwaHbTuVpl/rtd196Md/8yX26x2+y3tnec3qzSwVxlXjFa8+/5Idr4BMXWHi3C61p2u42d/Yk7OU43UobZkk5LCIZsrAy59Lqrsso6O7uH34VzlsDvBjgl5IyXqfjRwfC7fM4+xJ0cZ08jZ2I0Nt2p2He4s+g46wdzssen97c769aO2kuXxMeOs0rcyXH2DePjSG4QO47jOAn8sah5rCPi3+Vy9jLu5Dh7Bn2qv5e+W7EOpB4jdBzHcfqyV50C7a2Os59wJ8dxChkfjev4PYz96rTJKXUcx3H2NvbujuPsFdzJcXaFHncXRmcj4hzMOSF73aHo7WQ5juOsmr1iNO/2SyBy8p+7e1Rzd4k0rfX2RwOd3cadHGcR1vURqbmFfr/eVanFHSrHcdaN3XY8erEOTsButqU7Qc7SuJPjrA3h403r6ijlsJfL7jiO49x+lHwvp8RBqbmT5Dg92Hjqqafe3T53nB3OnDkzHk+dOjUeHcdxHMdx1gW3U5w5Nj73R1+ddHJO/ujccOnRY11vKd73zbPDq5+9f/uqDm6xHjt9aTj3kZPbIfnUpD32wlvj8dIjR8fjFDltNqdvSkes/WL6Qh2hjPTY9lCaV194ZZQ58cQj49HmafWEbWnlYvptWsUrT0COc8lLhuObn9hKvxWuT4T41AnZE989N7z1+J1j2NFnLo633m29LXPtPhcPOf0Lti2mKB2PuflbatJAbTqomWchPXSInrpES/vMkTt+WlhFHiJnbvVkL7ffuo/VHvXejbWlJl1pmpJxntOOOfm37GvSz50Zu49O7beUWWVXPyLLEVReydj8bb/b+ttzKxOW3cq9+eMXxqPslCmW7Edhy5ZL7TyoyQtq6iVq5k9IbbktJTr8cTXntsLf+LW3YOH3x/4cx9krjI98dXyhwro/6hU+tuaPpjnrhDs5zq7Dgmi/7D9n2C7pqOToDsvrOI7j7E/2gtE+51hNxc/Vr7fT5jirxJ0cZ9+xLk7IUm8m2ytOlt+FcZw69oJh3Up4B6CE/dA+7A3r/Ia4sI1b+stxdgt3cpw9Q2g07xVjfy/jbTyNt4/jOI7jrCfu5Dj7giUfYXMcx3Ecx3H2Fu7kOPuK8RExd3Ycx3GcgFU85rYXH+tiz9Te6d+/cfYT7uQ4e55xcV7hI0O97xqt4rsr/ljV3mOp73Q5fVj371Q4+4MejkeJ48U+4ePa2S+4k/P/b+/uceNYtgOOD6MH8RqkDYkGHggLDm4gQIADbUCLUOLEiQMmjhw40RK8Am9AC9EGlAlWcANDAG1DFP1AGpeC8QJZp+8cvVK96vrqqu6q6v8v6WF/VFdX90zXmVM9RNNyOnpTh34mCAkFFGsEHEsxNA8AoJZkj6YgqnJ2K9WS4wFMBDlYZK2ggG+196vUue8hgAVqKdVx3FsGq0QmxWWNoXOl6bnf2zWAfhHkoDvaWW09ozHCELGlbUxwCgD9IquCnhHkIAqdVQBACUszAbWyK3vl+iIrtY3XCIbIICEVQQ42YwdOMcOJ5oIt+TCePmQ9z+O0jCASALAVuXfqCAlbTnBBQIIWnFxdXX09vga+u7m5maYXFxfTFAAAoBX0UxBy8urNa2+Qc/7+7vDw9LRoGvLx28+H25dPjn/lkW8JTj8+HO6enx/nxMvZ9vT6yzR9uHw0TX1i2ixUnq8MV/u5yrPLsNfRcsz20G1urz9N65w9u5ymZllz5cy9Nss3t9Uy9bkVmafb6DLZzjU9e3d3uH/xrbxvf+vDm49++fXw5eefvr/WetjsdrGFlgvzOOeEzrEpZp8q5/rNfb/kbqdSjmtOiTJUzHlLkXKOU5U87jlr7EPVbCuX0ufatvS94VOjrUq1R4nj3upzJWe7lG1Sjiv2HIfOW2ifoeVSvnnf1NcyIkKO27zXyt+uqZSt9dTjkoyQLjOP1TyemNfmtvax3H+4nqbaT/FJveZy3oNmvWPlXss5+xI5x6VS29Alt96mlDIYrobq5M3rG4YmH4Y9DjELqXVcofYE9k5uxgyVQQnTEK7EDmiM1GdeAKQjyAGATKMG6NgWHWD0imsXLSHIwaroFAJAv1r4/y61sisAxkKQgy7Y/3NGh6KYw7Z03hpBlOxLhsSMrsTQuKX/K8g+9wD61kKgVEOLxxVTJ71nmkM89XPfnKdlpR4n2R1shSAHTdMP1FS+ICS3zJparFMJKTfCNewlOAVMPKP0m94yQDHnLTXgMHFdYHQEOehe6SFwIwYc/FgBACDHkkAK2BJBDpJt+VxNTwFIzcCCjAQA1FUz09FqVqm1oWUMdcMSBDkAAAAAhkKQAwAAAGAoBDloytJhWJLWDg0RCw2322I43hb7jMXQOODP8ZzCNvb0sPxa15jeM1P3pfXLOSd7Oo/YDkEOqlnSOY599mbax3E9c5vY7XPVLn8ULQdvreMaA/qyxfMjoX36lsvni3zOzAktL4WAB7UQ5KCoJYFNCjqA6dY6N6URKAHtKNGR3yQYoCMdTe6ttBVGQJCDLvTa0e01sACAvauVyWg54Jp+9W3lABSohSAH3ZMP5Fo/1dwqMlnAuFr9eWHsW0oGbq2hboDPydXV1dfja+C7m5ubaXpxcTFNAQAAWkE/BSEnr9689gY55+/vDg9PT4t+q/T47efD7csnx7/ySLr39OPD4e75+XFOvJxtT6+/TNOHy0fT1CemzULl+cpwtZ+rPLsMex0tx2wP3eb2+tO0ztmzy2lqlmW3n1kfcz3ztWtfZn10uW6jWQr51kjWl3nmVL8hkm+WZN7Zu7vDl59/+j5vynR8m86dY1cbqpjrI/YaMtvAJ7Y8lXI9qti62HK3E6nH5VKiDJXTbiG+a2mJGnW1LTm3qdY4HlXymplT83hKX1Ml61rimtniMyVnu9R2iz1vsXWJaafQPn3L5fh0GLjeUx/98uvh/sW3+/O3+tn3WZlnTu37tByP7s9sO/M4dLnZBnZ7mHU2t7XXu/9wPU21n+KTev5z3jOhc+GS+17I2ZdY8lmQ2oYuufU2pZTBcDUMQz5o9QN7CfmwWXv42xb7BIDeMAyqHP1C8PvryKFoQC8IcgB4TVkxnv8B0LGWgiMCNWAdBDnoWusd8Fr1y8labdFWZKgA2PhhhbYRhGEUBDnokt3Jn36queFgBwBGsKcAZW9DuOQeav60NUPY0DuCHABNIxsEAABSEeSgSTnDsVKE/klnaHmNjndonwCA/QhlzeR+YWZebKHleg/LHZqmmZ7Q8LY9Zf/QFoIcrEI78KHgYO65kZSgQj9sY9cHAGCJUEDRuikQCQxNWxqs9N5G6A9BDrriC3bkA7q1wKZ2RmoNIxwDACDP0uAG2ApBDrATBCu0AfZJhxWNIPdYcrar1bnv/XwQ9KAXBDlomi9zI/baaQ21CwAAwJ4R5ACZ9Dkj+I3eTlwHKGn05xZ4LiNOzGdK6IH/0HKbrj9S5g/7RpCDLtmZDPMHCzS74+t8muu7hJYDte01S9kLOoIwpQYUMWoGgzHBJsPS0DuCHKARBFbzfAErgHWQhRkPwTpGRpCDJpTqxE7lNBQo8OwMAMDUWoZE7pklgleCYLSGIAebYThOHwjUALQiN0Bg6NW6yBChBQQ56EapbM8oUtuDYAUA4pCV+BHtgR6d/MO//vPX42unR7/8evjy80/Hv8ooUaZmAHIe9MvZNmWbmOMLlecrw7XMVZ69nr2OLjfn67w//Md/TfP+6m9/P03NsubKSX3t2q/OU+Yy19T+0JVOvM6T17Kei30MttByofUIiV0vZp+m2HJNOduI3O3Ekm1ViTJEahvHKFU3W4262tbYhxptXz2d95beP0vLyD2W1O1S65myfkxdYsoLreNbrsvMe6bSe6fU014mZWn9daplKXMdYa8ny+deC9e2wl7P7qf42NuGpK4vzLrGytlG5G6Xc1xqybYqt96mlDKCmRy5wPXAWiKNnPut9JJtY5RoszXLMNtjbhtzvq/9zPXmXivffl370HXMdXU9ncoyoa/tfSrfMYjQcuErP0fMPk2l919LiXqWOtbUNo5R6zzUqCvK6em8t/z+aRXH+htdFtMe5jqua85cPvfaZpYTU4c5S7atqdbnSA2ttqHPyas3r72ZnPP3d4eHp6dFx7I+fvv5cPvyyfGvPJI6Pf34cLh7fn6cEy9n29PrL9P04fLRNPWJabNQeb4yXO3nKs8uw15HyzHbQ7e5vf40rXP27HKammXZ7WfWx1xv7rVvv0Ln6Xo61XVkuUzP3t19X37/4nyaL3SZRvquNg5dAzHXSOw1YbaPT8w+TWabxoqtiy13O5Hy3pmTc6xzlhyLS8m6mVKvhxwlzk2s0fbV03kvdc2XqNvSc7PWZ1jNz+OYusS0U2ifvuVavnwr7rp/Sv2knrpM5mt7aP11qmXJMzi6jrlvXc9s07nXwmwfsxx7vfsP19NU+yk+qecz5zo16x0r5box5exLLHn/pbahS269TSll8EwOmjd90/HtzWWbm9+aXuoJAKhL7gVyT2iJ63/8zNXTNV8yEfzIAFpEkIOhyAc1/2sGAMpzdYaBHFxLWANBDtCpnIAuN6u0dTaK4BVAbhYkZzs64UD/CHJQzdYdU9//4ZHxr74H6ELLBf/nB0BpdK4hYoaAyT3K9yxHaDkwOoIcDGnKPPDNP1ZAlglAbwEFX9BhDwhy0D0dhhDKvLQuJnsEAOhXa5k6cxif3n/MeVpfMozoEUEOVjdlWTKe7zA/aHv65ry3+pbGsD4AKmYYFsaR+jxU7nNXgAtBDhbLDVpqoEMNAEA8Ak+MiiAH3SJDQkAHACE5Q6227vhv/YxPVptlbAPURJCDJrgCltoZolD5oeU9PkOz98BQtJR59OEZrbZt3QmNJde6XPMjoBP9J6HzGlo+Xb8Lgric64rzh7UR5GAVW3Su5QO8t05iqx3wrYMjslbA9hjW5NZrIJkTdNQIVAh+UAtBDoqq0RnOKbNGPXLRQQcA7EkvmU6MjSAHm3ENx1kyRGfKgjQS2AAAYGs1Gyb3Tr2HpmZVCGjQKoIcdK+lrA0AYB4d4vZM54RhiBgQQQ664xv+JctyM0E5tnyGZknWa0291BMA1JbBWMwzPqGMS05GxoXnsNAzghx0wxfczPEFIaEM0IgZopw2hB9tCrSNjvqPev2hBCAVQQ665etc0vEsi/YE1kGHfF6rbVMqa9ISu625LtEjghygISNmjwAAv9lyGJyNwAWjO/n7f/uXr8fXTqcfH6aOV8k3wtm7u8P9i/PjX3mkIyhv0Ienp8c58XK2Tdkmps1C5fnKcLWfqzy7DHsdLcecr9v89//+z+F3t/93+Iu/+5tpXbMsu5y5ZXOvzfVdddB5up6QZfLaNxXy+tEvvx6+/PzTD/Nc7Wgfhy20XJjH4hN7zcfs0xRbrkotX+Vup1LraVu6f1PsOYtVsm62pe0WUrPuttH2VevctHx9ljjmJWXktk3Odin1TGnjmHJjygut41uuy4S0i3nPlL/NZeY8mQpznpSvx2Tu0zUv9bUwz5297Pb60w/9FB9725DU9UXOtZ17TefsS+Qcl1qyrcqttymljJN/fP1P3iBHvnUoPXazVJlLykndNmX9mHVD6/iWu5bFzPP9ra91+od//8/DH3//u8Nf/+XjH5Yr17ZLXvvmhZYJ1/rmMhddb05ouYhZR5ReT6WuL3K2EbnbiSXbqhJliFLlmGqUKWqVq2qXbxptX72c85LllShrSRm52+Zsl7JNjXVD65VYLmQd+3XMVMQsM1+HlqvYZXY/JcQuyydlXbXWNmLt7dTW24uUMk5evXntDXLO399NUVvJ9Orjt58Pty+fHP/KIw/OSQR89zwjks3Y9vT6yzR9uHw0TX1i2ixUnq8MV/u5yrPLsNfRcsz20G3kGxJx9uxymppl2e1nLjP3MffaXF/rYC7XebqekP3Ja9/U9S2TkOWudgxdBzHXidRR9qVtOif2mrfPUYjZljFyrn2Ru52KPX6fEmWI1DYOWdo2PqWOeU7ptvAZbV+1zk3qezqkZFts/T7ObZuc7VLqmdLGMeXGlBdax3fMuq15rzTvn7KdfKa5pvJtvkn2r8dk1knnmZ+P5vK51/bnqXkc9rL7D9fTVPspPqmf02adYuVc27nXdM6+RM5xqRL3utx6m1LK4JkcNGv68LU+UFOVKMNHbwzwk29d5AMSwH7JZ8DSb3FzyDe/KZ3IreqZYgpMCg1pTLHVfoEcBDlAQ6Zxx99uIrXIjV5u+ACAfZuCPwIWDIwgB01I6dzHdNSlvJY6871nMgiOAGxt6pQnDutZQ2x2o4cMkS2lzcnyoDUEOegWHW8AAMorFVDKcHGGdWMrBDlYXeg5mbmsR6tBTc3hZQAAbG0u6OkxO4X9IMjBMFxD3nzD4EJBU0xQRWoeAMaydfYhZthXKNMSWq70WBlqhhER5GA4oUzRSPZ0rL0/15Rjj8fcgz1+e8039uPwBTSxwRHQA4IcbKpEJy4m49KLNY5l7x1nX3Yvx0jXH7Y3cidziwzJGsEZgcGPCIjRCoIcVFO6M5lq6szvJMvRuj1lnHqy9XsU9TEMqR1bBHlzpC4EIhgdQQ6wghE6+XvPAKEfdOzHQ3ZgLLxHsQaCHDRLv2V2DQcq1eGm4w4AaEnLw98YmoeeEORgFbWGxYSCFNmvHSClCJbvCMAAAKgllNUKLZ8CFU8WRbf3lZOTiSF7g7UR5GAYGnDUCqhatKdjBYA17KkzrsdKhgYjIshBV0KZlRHs4RgBYA21H/YPZU1aldIuvR4jQJCDIbgCg5Ye9m8p4zLCjyAAWFftYGEPWs8QEcxgNAQ5AKorEeQRnAEAgFgEOdi9pR3nvQwvI8gAsMSSTMZeMkkx2ZRQW6zZVua+eK4HrSHIQRPMXykr3Zn2BSGhG0HpugDAmuh4wsSQNOwJQQ7QMTM4RBzaDIDPngJDgmCMjCAHXbMzLfoNFZ1YrGkvQxZRF9+y92fNoWG12NedHtMIx4Z9I8hBF+xOZMwwsqZ+0SwhexBzbEu01C4AUFNLv2jWUtYkp10IwtEbghzsGh1+AAD+lMEBRnFydXX19fga+O7m5maaXlxcTFMAAIBW0E9ByMmrN6+9Qc75+7vDw9PToinWx28/H25fPjn+lUfSpqcfHw53z8+Pc+LlbHt6/WWaPlw+mqY+MW0WKs9Xhqv9XOXZZdjraDlme+g2t9efpnXOnl1OU7Msu/3MZeY+zPXmXpvban3MMnSerhcaxiVZGVnv7N3d4f7F+bQf/WbK1db2sdhCy0XoXKrY6z62PBVbroo5Jpfc7VRqPW1L929aWhebeR2XlHotpCrZpiG1j8VU63yoWsdS43yUutZLtOmSuuTuP2e7lHqmXAsx5caUFzom33It33evnCMjH/T61GMx6+uaZ9Zl7rW5vv0eMNvMXnb/4Xqaaj/FJ/W9FXMebCnXjQqdyzk5+xI5x6VKfD7l1tuUUgbD1ZBM3oxzz5ekDv+q/fzJHvDQOwCUIZ+lPHcCjIEgB0OaOv6dBk88JwQAqE3ukXqv3PJZHLnfpf4IAhCDIAdDMTND8qHZ0k9Jk3EBgHXV/kWz2A56axmiqV0ILDA4ghx0SbMdOt1SC3VI4RtuCADo29LAjswKRkGQgyH4Ag3vskCHn4BgTGTVsAc8X9KfmABjaRATi2AHvSPIQXN8QQkAAMjjC1wIajAaghwAUZZmtcieAPu1NKu0WvZi44fwW+ZqGwIjtIwgB83wdYL39FPTqcHEntoGGFnLHey1gozexLZLi+e2ZJ0YGokWEeSgK6GhbLpcO/5T4NRIAEAwsszSTFJNnFsAvdB7IzA6ghzsni+DJELLezTiMQGAqcfswtKMWc4xh4aclRqSFnNsEoC1lvFCvwhysFjMt9i538KX6IzLh3PNDEDLGQYAwDiWBm5ToLEwYOkxeMQ+EeSgawQYAACUMwVCC7JJQCsIclDNmgHInoMdfQ4JAIBcdnBTM9ghkMIaCHLQpVBQ02LHP6VOJYbp1dBqvQD8uVGeb1hzeFTK8ycM2wLaRpADYBUt/QIZv4YGrGvvD5SXeng/JKaddZ216gRshSAHQ4vpzJbo8JLhAIC29BZYxWSGahwTQ8cwKoIcbKr0sLK5YWxLgpASQVBrej2mvQWTpd8fQA6GZY1hrfNIhgitIMhBF+jsAYhV+5tpOnHYE30/cd2jNwQ5WF3oRwN8lmwL4Ee8nwAsEfpCIbQcqIkgB81J7Xj1MoSpVoeSjiqAka35bE1KpzylXr109hmaiJEQ5GAYZrCjHf+YYW4tDoVr9ZmZEZ9PKoHhlCiB4UBYg35WmYEXwQ1GRJCDbq2VwYkKlOj8BxEIAMC8mMxQKBD2LTfLDwXTvqDHVc+YugNrI8hBM1yBgmteiCv4ySlnZAQcANYU6pzXwGdc2BpfFAJbIcgBsDsEecA+rB1Y9YhhahgVQQ4AAAMqlT1hKBKAHhHkACuKfY4oNdOw1vNJW2PYIYBafM+huMQGkanlAijj5Orq6uvxNfDdzc3NNL24uJimAAAAraCfgpCTV29ee4Oc8/d3h4enp0V/3/3x28+H25dPjn/lkW9GTj8+HO6enx/nxMvZ9vT6yzR9uHw0TX1i2ixUnq8MV/u5yrPLsNfRcsz20G1urz9N65w9u5ymdllmHcxy7bY113O9Ntc3y9HlOk++LbPrKH/LVL/Zl2/VzPk6PXt3d7h/8a384/YuZt1cQstjrynfeTWlXqOx5arU8lXudmLJtsp1necoURdT6fJUrXJNoWu7lFLnLkbtY0p9v8UqXW6p8kqcuyV1yd02dbvU91ts+bHlxpS35F6l5/HRL79+vyfK/mRqD0fUe64ul7pr2eb14JpnHodZn7nX5vr2tWauZ7fj/Yfraar9FJ/Uc5tzzZt1jZV6jaqcfYmc41Il7ke59TallMFwNXRBPgBC//CSoUwAABW6Z+xNqWe0gF4Q5AA7FBM0lrbFPgG0wfzHk2vaYp89mftRCX5sAiMgyEG35jI3ZHQAAK0gYAC2QZCDJo36a2GxARhZDwBYV2owslV2qhVyj+ZX49AyghysxhW4hDrzqT+l7DLtNxBYhIKq1oMusldA//bead670PkPBRUxQYfcJ0LrLOU6jpi6AaUR5GAXJFjyBVNLhYI1lFEi6K2B848WhTrNsbZ+YL3Ucezd1I7H85iatTLxAwboBUEOhmF3gMlulDdKZ76X4yB4ahOdbgBoH0EOmpH7LX3udnvX+hA8AMjF8Kg0mp3ZIkvDlwaohSAHRbXwzXPLQQ8BGQCgF7HD2rYIjoAQghxsYkkWYS/D0FLaqJfgiewRsD8jZlVSjmmtACDnOZuadRvxvKMvBDnoht1BLtmxDwVOMYEVHXgA6NeW2YiYgCAniLHllkHAgh4R5GBYGgRpgEIQAgDYo9QgZcuADyiFIAdVEViMh3MKAH1rPWsFlECQAwAAZm3561e5HeISQ7sA9I0gB8Pgf4qkiXnOqDWcYwC96eEnknuoI5CKIAfdszu+OR3h0I8YhJbHSqlbj0FITxh2h5ExJChdyn1jlEyRHdzYf/uQLUPrCHLQJO3g5wQstlIBSsiWQUmJdgKAGnrqDMd28EuLaaPQczS+5SXPQUogBGyJIAe7sWUQgt+MfA7IDGEJMi9YQyhQAkZCkIPuxGZmyG4AAPDnYrMxBEXoGUEOukUQAwBj62mo20gYkoYREOQAK2tlWFNsRszGsD8AiDPKMESCTfSIIAebi+30x3SucwOImKxQaHlu0DCndHkAsBe1h1ltMYwrlF3Jzb6UDMRGCeowBoIcNKPk8DNXsLMkaOghbZ8b4PVmL8e5ltHak05WWXtpz62Pc62gyQyESh5zboAF1ESQgyH4OmolgycsQ3Yqne/axvr20unHWGKCKK5tjOVw+H8UsSTUqW7ufwAAAABJRU5ErkJggg==;" vertex="1" parent="1">
          <mxGeometry x="310" y="320" width="825" height="530" as="geometry" />
        </mxCell>
        <mxCell id="UosU6ngciWdtriWRWZEN-3" value="" style="endArrow=none;dashed=1;html=1;dashPattern=1 3;strokeWidth=2;rounded=0;" parent="1" edge="1">
          <mxGeometry width="50" height="50" relative="1" as="geometry">
            <mxPoint x="956" y="130" as="sourcePoint" />
            <mxPoint x="628" y="461" as="targetPoint" />
          </mxGeometry>
        </mxCell>
        <mxCell id="UosU6ngciWdtriWRWZEN-5" value="" style="endArrow=classic;startArrow=classic;html=1;rounded=0;" parent="1" edge="1">
          <mxGeometry width="50" height="50" relative="1" as="geometry">
            <mxPoint x="987" y="162" as="sourcePoint" />
            <mxPoint x="960" y="130" as="targetPoint" />
          </mxGeometry>
        </mxCell>
        <mxCell id="UosU6ngciWdtriWRWZEN-6" value="&lt;font style=&quot;font-size: 30px;&quot;&gt;$$75\;mm$$&lt;/font&gt;" style="text;html=1;align=center;verticalAlign=middle;whiteSpace=wrap;rounded=0;" parent="1" vertex="1">
          <mxGeometry x="1010" y="120" width="60" height="30" as="geometry" />
        </mxCell>
        <mxCell id="UosU6ngciWdtriWRWZEN-7" value="" style="endArrow=none;dashed=1;html=1;dashPattern=1 3;strokeWidth=2;rounded=0;" parent="1" edge="1">
          <mxGeometry width="50" height="50" relative="1" as="geometry">
            <mxPoint x="280" y="650" as="sourcePoint" />
            <mxPoint x="489" y="652" as="targetPoint" />
          </mxGeometry>
        </mxCell>
        <mxCell id="UosU6ngciWdtriWRWZEN-9" value="&lt;font style=&quot;font-size: 30px;&quot;&gt;$$75\;mm$$&lt;/font&gt;" style="text;html=1;align=center;verticalAlign=middle;whiteSpace=wrap;rounded=0;rotation=-90;" parent="1" vertex="1">
          <mxGeometry x="210" y="660" width="60" height="30" as="geometry" />
        </mxCell>
        <mxCell id="UosU6ngciWdtriWRWZEN-10" value="" style="endArrow=classic;startArrow=classic;html=1;rounded=0;" parent="1" edge="1">
          <mxGeometry width="50" height="50" relative="1" as="geometry">
            <mxPoint x="270" y="692" as="sourcePoint" />
            <mxPoint x="270" y="650" as="targetPoint" />
          </mxGeometry>
        </mxCell>
        <mxCell id="UosU6ngciWdtriWRWZEN-11" value="&lt;font style=&quot;font-size: 30px;&quot;&gt;$$75\;mm$$&lt;/font&gt;" style="text;html=1;align=center;verticalAlign=middle;whiteSpace=wrap;rounded=0;rotation=-90;" parent="1" vertex="1">
          <mxGeometry x="210" y="470" width="60" height="30" as="geometry" />
        </mxCell>
        <mxCell id="UosU6ngciWdtriWRWZEN-12" value="" style="endArrow=classic;startArrow=classic;html=1;rounded=0;" parent="1" edge="1">
          <mxGeometry width="50" height="50" relative="1" as="geometry">
            <mxPoint x="270" y="500" as="sourcePoint" />
            <mxPoint x="270" y="460" as="targetPoint" />
          </mxGeometry>
        </mxCell>
        <mxCell id="UosU6ngciWdtriWRWZEN-14" value="" style="endArrow=none;dashed=1;html=1;dashPattern=1 3;strokeWidth=2;rounded=0;" parent="1" edge="1">
          <mxGeometry width="50" height="50" relative="1" as="geometry">
            <mxPoint x="280" y="499" as="sourcePoint" />
            <mxPoint x="653" y="497" as="targetPoint" />
          </mxGeometry>
        </mxCell>
        <mxCell id="NgI8akpO8XYIOHN-Inen-2" value="" style="endArrow=none;dashed=1;html=1;dashPattern=1 3;strokeWidth=2;rounded=0;" parent="1" edge="1">
          <mxGeometry width="50" height="50" relative="1" as="geometry">
            <mxPoint x="984" y="166" as="sourcePoint" />
            <mxPoint x="644" y="498" as="targetPoint" />
          </mxGeometry>
        </mxCell>
        <mxCell id="NgI8akpO8XYIOHN-Inen-3" value="" style="endArrow=none;dashed=1;html=1;dashPattern=1 3;strokeWidth=2;rounded=0;" parent="1" edge="1">
          <mxGeometry width="50" height="50" relative="1" as="geometry">
            <mxPoint x="280" y="462" as="sourcePoint" />
            <mxPoint x="633" y="460" as="targetPoint" />
          </mxGeometry>
        </mxCell>
        <mxCell id="NgI8akpO8XYIOHN-Inen-4" value="" style="endArrow=none;dashed=1;html=1;dashPattern=1 3;strokeWidth=2;rounded=0;" parent="1" edge="1">
          <mxGeometry width="50" height="50" relative="1" as="geometry">
            <mxPoint x="280" y="690" as="sourcePoint" />
            <mxPoint x="482" y="690" as="targetPoint" />
          </mxGeometry>
        </mxCell>
        <mxCell id="UosU6ngciWdtriWRWZEN-15" value="" style="rounded=0;whiteSpace=wrap;html=1;strokeWidth=5;fillColor=none;strokeColor=#FF0000;" parent="1" vertex="1">
          <mxGeometry x="310" y="320" width="825" height="531" as="geometry" />
        </mxCell>
      </root>
    </mxGraphModel>
  </diagram>
</mxfile>
